<svg width="490" height="490" viewBox="0 0 490 490" fill="none" xmlns="http://www.w3.org/2000/svg">
<path d="M417.744 136.474C417.744 136.474 410.641 131.012 400.279 148.196C389.919 165.379 385.741 175.417 385.741 175.417C385.741 175.417 383.073 178.982 380.68 176.357C378.288 173.731 375.268 166.553 370.817 167.489C366.2 168.46 364.35 173.402 364.683 180.883C365.016 188.365 365.144 204.782 365.15 206.266C365.156 207.724 364.173 209.8 362.257 208.273C360.341 206.746 349.671 193.009 343.456 198.463C337.241 203.915 341.594 224.604 342.026 226.875C342.458 229.146 341.955 230.067 340.857 230.542C339.758 231.018 336.608 226.062 333.413 222.281C330.218 218.498 325.85 214.672 322.528 218.119C319.206 221.565 317.141 236.708 329.856 262.451L336.527 273.993L349.917 274.205C378.6 272.912 390.865 263.793 392.279 259.22C393.694 254.646 388.234 252.668 383.379 251.696C378.524 250.724 372.664 250.357 372.55 249.165C372.437 247.973 373 247.087 375.197 246.37C377.394 245.653 397.614 239.477 399.39 231.401C401.165 223.326 383.985 220.613 381.722 219.672C379.459 218.731 380.804 216.868 382.083 216.169C383.385 215.458 397.825 207.645 404.537 204.325C411.249 201.006 414.685 196.999 413.307 192.488C411.978 188.137 404.233 188.958 400.778 188.131C397.325 187.302 399.158 183.244 399.158 183.244C399.158 183.244 405.933 174.74 415.98 157.371C426.027 140.003 417.59 136.369 417.59 136.369" fill="#EBEBEB"/>
<path d="M408.438 151.847C408.438 151.847 408.38 151.977 408.246 152.221C408.103 152.478 407.903 152.837 407.645 153.299C407.101 154.258 406.313 155.646 405.301 157.425C403.262 161.006 400.273 166.166 396.557 172.528C389.128 185.255 378.719 202.749 367.161 222.034C355.599 241.324 345.149 258.795 337.657 271.483C333.924 277.82 330.9 282.953 328.8 286.518C327.76 288.28 326.948 289.655 326.389 290.603C326.116 291.057 325.905 291.408 325.753 291.661C325.608 291.898 325.523 292.014 325.523 292.014C325.523 292.014 325.582 291.883 325.716 291.639C325.859 291.381 326.059 291.024 326.316 290.561C326.861 289.603 327.649 288.216 328.66 286.436C330.7 282.856 333.688 277.697 337.405 271.335C344.833 258.607 355.244 241.111 366.807 221.82C378.365 202.536 388.814 185.067 396.306 172.379C400.04 166.042 403.063 160.909 405.164 157.344C406.204 155.581 407.015 154.207 407.576 153.257C407.848 152.804 408.06 152.452 408.212 152.2C408.354 151.963 408.438 151.847 408.438 151.847Z" fill="#E0E0E0"/>
<path d="M374.638 177.701C374.666 177.695 374.76 178.026 374.908 178.627C375.059 179.229 375.251 180.104 375.478 181.188C375.929 183.358 376.475 186.369 377.018 189.703C377.54 192.993 378.014 195.969 378.375 198.244C378.545 199.269 378.688 200.134 378.803 200.828C378.906 201.438 378.951 201.779 378.922 201.785C378.895 201.791 378.797 201.462 378.644 200.861C378.495 200.259 378.302 199.383 378.086 198.296C377.657 196.121 377.15 193.104 376.608 189.77C376.063 186.486 375.568 183.515 375.19 181.242C375.016 180.218 374.868 179.354 374.749 178.659C374.651 178.048 374.609 177.707 374.638 177.701Z" fill="#E0E0E0"/>
<path d="M380.129 202.109C380.105 201.998 386.265 200.598 393.885 198.985C401.508 197.371 407.705 196.154 407.729 196.266C407.752 196.377 401.594 197.777 393.971 199.391C386.35 201.003 380.152 202.221 380.129 202.109Z" fill="#E0E0E0"/>
<path d="M361.039 230.928C361.042 230.9 361.393 230.91 362.024 230.953C362.739 231.007 363.632 231.073 364.693 231.153C366.945 231.318 370.057 231.533 373.499 231.645C376.942 231.764 380.061 231.764 382.319 231.746C383.382 231.738 384.277 231.732 384.994 231.726C385.626 231.725 385.977 231.738 385.978 231.766C385.979 231.795 385.631 231.837 385.001 231.887C384.37 231.937 383.457 231.993 382.327 232.038C380.067 232.131 376.938 232.178 373.485 232.058C370.034 231.946 366.916 231.684 364.666 231.444C363.542 231.319 362.634 231.208 362.007 231.112C361.38 231.02 361.036 230.956 361.039 230.928Z" fill="#E0E0E0"/>
<path d="M351.215 209.944C351.24 209.932 351.406 210.211 351.682 210.725C351.991 211.323 352.371 212.057 352.819 212.923C353.763 214.787 355.04 217.373 356.427 220.24C357.816 223.109 359.052 225.717 359.927 227.612C360.328 228.501 360.668 229.253 360.945 229.867C361.177 230.403 361.293 230.706 361.267 230.718C361.242 230.731 361.076 230.452 360.8 229.937C360.491 229.34 360.111 228.606 359.663 227.74C358.719 225.877 357.443 223.29 356.054 220.421C354.666 217.553 353.43 214.945 352.554 213.05C352.153 212.161 351.813 211.409 351.536 210.795C351.305 210.259 351.188 209.956 351.215 209.944Z" fill="#E0E0E0"/>
<path d="M331.132 233.244C331.157 233.231 331.366 233.59 331.72 234.249C332.102 234.981 332.595 235.926 333.187 237.06C334.409 239.441 336.072 242.744 337.886 246.402C339.7 250.063 341.322 253.386 342.477 255.801C343.021 256.958 343.475 257.922 343.825 258.67C344.136 259.351 344.295 259.734 344.269 259.747C344.244 259.76 344.036 259.401 343.681 258.742C343.299 258.009 342.806 257.065 342.214 255.931C340.992 253.549 339.329 250.247 337.514 246.587C335.7 242.928 334.079 239.605 332.924 237.19C332.38 236.033 331.926 235.069 331.575 234.321C331.266 233.64 331.106 233.257 331.132 233.244Z" fill="#E0E0E0"/>
<path d="M344.133 259.025C344.135 258.996 344.579 258.997 345.38 259.025C346.255 259.059 347.397 259.103 348.772 259.156C351.636 259.264 355.592 259.397 359.963 259.422C364.336 259.452 368.293 259.376 371.157 259.3C372.533 259.265 373.675 259.235 374.55 259.214C375.352 259.196 375.796 259.2 375.798 259.229C375.8 259.257 375.358 259.308 374.559 259.375C373.759 259.441 372.601 259.52 371.168 259.593C368.304 259.743 364.339 259.867 359.959 259.836C355.58 259.813 351.619 259.632 348.756 259.449C347.326 259.354 346.167 259.266 345.37 259.186C344.572 259.109 344.131 259.053 344.133 259.025Z" fill="#E0E0E0"/>
<path d="M62.0705 169.32L56.4375 169.35L57.7897 419.759L63.4227 419.728L62.0705 169.32Z" fill="#E0E0E0"/>
<path d="M75.5627 169.247L69.9297 169.277L71.2819 419.686L76.9149 419.655L75.5627 169.247Z" fill="#E0E0E0"/>
<path d="M193.426 168.61L187.793 168.641L189.145 419.049L194.778 419.019L193.426 168.61Z" fill="#E0E0E0"/>
<path d="M206.906 168.555L201.273 168.585L202.601 418.993L208.234 418.963L206.906 168.555Z" fill="#E0E0E0"/>
<path d="M206.917 168.538L56.4375 169.35L56.4684 175.065L206.948 174.252L206.917 168.538Z" fill="#E0E0E0"/>
<path d="M207.195 219.948L56.7148 220.761L56.7241 222.467L207.204 221.654L207.195 219.948Z" fill="#E0E0E0"/>
<path d="M207.457 268.405L56.9766 269.218L56.9858 270.925L207.466 270.112L207.457 268.405Z" fill="#E0E0E0"/>
<path d="M207.718 316.862L57.2383 317.674L57.2475 319.382L207.727 318.569L207.718 316.862Z" fill="#E0E0E0"/>
<path d="M207.98 365.319L57.5 366.131L57.5092 367.837L207.989 367.025L207.98 365.319Z" fill="#E0E0E0"/>
<path d="M145.094 337.38L118.438 337.524L118.59 365.801L145.247 365.658L145.094 337.38Z" fill="#EBEBEB"/>
<path d="M171.623 337.237L144.965 337.381L145.118 365.659L171.775 365.515L171.623 337.237Z" fill="#F5F5F5"/>
<path d="M118.462 345.268C136.174 345.442 153.939 345.295 171.65 345.012C171.917 345.008 171.916 344.598 171.648 344.596C153.936 344.503 136.17 344.546 118.461 344.911C118.231 344.917 118.233 345.266 118.462 345.268Z" fill="#E0E0E0"/>
<path d="M137.388 230.932L117.863 231.038L117.975 251.749L137.5 251.643L137.388 230.932Z" fill="#EBEBEB"/>
<path d="M156.818 230.827L137.293 230.933L137.405 251.644L156.929 251.539L156.818 230.827Z" fill="#F5F5F5"/>
<path d="M117.88 236.759C130.855 236.866 143.861 236.791 156.836 236.58C157.102 236.576 157.101 236.166 156.834 236.165C143.858 236.094 130.851 236.158 117.878 236.404C117.649 236.407 117.65 236.757 117.88 236.759Z" fill="#E0E0E0"/>
<path d="M141.164 251.298L105.691 251.49L105.783 268.368L141.256 268.177L141.164 251.298Z" fill="#EBEBEB"/>
<path d="M176.469 251.107L140.996 251.299L141.087 268.177L176.56 267.986L176.469 251.107Z" fill="#F5F5F5"/>
<path d="M105.703 256.185C129.269 256.451 152.916 256.212 176.48 255.835C176.747 255.831 176.746 255.421 176.478 255.42C152.911 255.296 129.263 255.31 105.702 255.829C105.473 255.834 105.475 256.182 105.703 256.185Z" fill="#E0E0E0"/>
<path d="M115.563 185.789L106.652 185.837L106.84 220.58L115.75 220.532L115.563 185.789Z" fill="#EBEBEB"/>
<path d="M106.531 195.23L97.6211 195.279L97.7575 220.539L106.668 220.491L106.531 195.23Z" fill="#E0E0E0"/>
<path d="M129.555 192.223L115.711 192.297L115.863 220.453L129.707 220.378L129.555 192.223Z" fill="#E0E0E0"/>
<path d="M133.726 192.212L129.328 192.235L129.477 220.391L133.876 220.367L133.726 192.212Z" fill="#EBEBEB"/>
<path d="M138.176 198.684L133.777 198.708L133.894 220.357L138.292 220.333L138.176 198.684Z" fill="#E0E0E0"/>
<path d="M113.662 287.522L105.418 284.141L93.0593 314.279L101.303 317.659L113.662 287.522Z" fill="#E0E0E0"/>
<path d="M121.402 282.794L112.492 282.842L112.68 317.585L121.59 317.537L121.402 282.794Z" fill="#EBEBEB"/>
<path d="M139.848 289.205L126.004 289.279L126.156 317.435L140 317.36L139.848 289.205Z" fill="#E0E0E0"/>
<path d="M125.943 278.85L122.914 278.866L123.122 317.452L126.152 317.436L125.943 278.85Z" fill="#EBEBEB"/>
<path d="M122.948 284.878L121.434 284.886L121.609 317.46L123.124 317.452L122.948 284.878Z" fill="#F5F5F5"/>
<path d="M140.121 315.915L140.129 317.429L172.703 317.253L172.695 315.739L140.121 315.915Z" fill="#F5F5F5"/>
<path d="M175.453 306.724L139.945 306.916L139.994 315.923L175.501 315.732L175.453 306.724Z" fill="#EBEBEB"/>
<path d="M168.409 297.687L139.895 297.841L139.943 306.848L168.457 306.694L168.409 297.687Z" fill="#E0E0E0"/>
<path d="M244.93 42.1351C246.191 36.1483 245.435 29.3334 245.496 23.2319C245.558 17.1275 246.343 10.3312 245.254 4.31301C245.11 3.51627 243.79 3.51725 243.645 4.31301C242.545 10.341 243.198 17.1079 243.134 23.2319C243.072 29.3157 242.183 36.1561 243.432 42.1351C243.587 42.876 244.774 42.875 244.93 42.1351Z" fill="#E0E0E0"/>
<path d="M191.039 89.621H298.962C298.962 89.621 288.997 41.9283 244.182 41.9283C204.321 41.9283 191.039 89.621 191.039 89.621Z" fill="#F5F5F5"/>
<path d="M468.871 419.8C468.871 419.941 369.557 420.055 247.075 420.055C124.55 420.055 25.2578 419.94 25.2578 419.8C25.2578 419.66 124.55 419.545 247.075 419.545C369.557 419.544 468.871 419.659 468.871 419.8Z" fill="#263238"/>
<path d="M325.624 419.478H164.377C158.126 419.478 153.059 414.411 153.059 408.16V146.967C153.059 140.715 158.126 135.649 164.377 135.649H325.625C331.876 135.649 336.943 140.716 336.943 146.967V408.16C336.943 414.412 331.875 419.478 325.624 419.478Z" fill="#455A64"/>
<path d="M250.635 406.281C250.635 410.473 247.477 413.871 243.579 413.871C239.683 413.871 236.523 410.473 236.523 406.281C236.523 402.09 239.682 398.692 243.579 398.692C247.476 398.692 250.635 402.09 250.635 406.281Z" fill="#263238"/>
<path d="M271.501 146.959H218.499C217.842 146.959 217.309 146.426 217.309 145.768V145.015C217.309 144.357 217.842 143.824 218.499 143.824H271.501C272.158 143.824 272.691 144.357 272.691 145.015V145.768C272.691 146.425 272.158 146.959 271.501 146.959Z" fill="#263238"/>
<path d="M331.615 151.936H159.328V391.399H331.615V151.936Z" fill="#263238"/>
<path d="M286.889 366.688C286.889 366.688 287.105 366.659 287.523 366.63C287.945 366.623 288.561 366.529 289.366 366.388C290.156 366.192 291.142 365.937 292.21 365.398C293.281 364.883 294.46 364.136 295.552 363.038C296.647 361.952 297.678 360.529 298.351 358.772C299.04 357.024 299.343 354.964 299.149 352.774C298.942 350.604 298.143 348.305 296.605 346.355C295.098 344.394 292.861 342.795 290.21 342.061C289.551 341.865 288.864 341.761 288.168 341.665C287.467 341.625 286.76 341.588 286.026 341.603C284.568 341.605 283.078 341.607 281.557 341.61C278.516 341.615 275.352 341.62 272.076 341.625C265.524 341.633 258.524 341.641 251.158 341.649C236.424 341.654 220.228 341.661 203.227 341.668C201.145 341.69 199.078 342.211 197.282 343.215C195.504 344.238 193.946 345.658 192.891 347.393C191.813 349.109 191.16 351.079 191.055 353.076C190.917 355.082 191.197 357.082 191.944 358.904C192.7 360.718 193.902 362.316 195.364 363.57C196.838 364.817 198.602 365.673 200.437 366.111C202.27 366.586 204.187 366.41 206.078 366.446C207.965 366.447 209.83 366.448 211.671 366.45C226.403 366.471 239.67 366.49 250.818 366.505C261.949 366.54 270.961 366.567 277.211 366.587C280.312 366.607 282.728 366.624 284.386 366.635C285.194 366.645 285.814 366.654 286.252 366.66C286.675 366.67 286.889 366.688 286.889 366.688C286.889 366.688 286.674 366.705 286.253 366.714C285.815 366.72 285.195 366.729 284.387 366.74C282.728 366.75 280.315 366.767 277.212 366.788C270.963 366.807 261.95 366.835 250.819 366.869C239.671 366.885 226.404 366.903 211.672 366.924C209.83 366.926 207.966 366.927 206.079 366.929C205.136 366.93 204.188 366.93 203.233 366.931C202.749 366.902 202.259 366.897 201.774 366.843C201.294 366.755 200.799 366.73 200.327 366.589C198.417 366.136 196.58 365.245 195.046 363.95C193.522 362.648 192.271 360.987 191.481 359.098C190.7 357.207 190.408 355.104 190.55 353.046C190.659 350.966 191.337 348.913 192.459 347.125C193.559 345.317 195.179 343.836 197.032 342.771C198.903 341.724 201.058 341.18 203.225 341.159C220.226 341.165 236.422 341.172 251.156 341.178C258.522 341.186 265.522 341.195 272.075 341.202C275.35 341.207 278.514 341.211 281.555 341.216C283.076 341.219 284.566 341.221 286.024 341.224C286.749 341.211 287.482 341.252 288.204 341.298C288.922 341.399 289.627 341.509 290.306 341.713C293.034 342.481 295.323 344.135 296.86 346.156C298.429 348.165 299.234 350.527 299.431 352.748C299.615 354.973 299.291 357.087 298.576 358.861C297.875 360.648 296.813 362.086 295.691 363.179C294.569 364.284 293.364 365.028 292.273 365.535C291.186 366.067 290.186 366.308 289.385 366.49C288.57 366.616 287.949 366.692 287.525 366.683C287.105 366.694 286.889 366.688 286.889 366.688Z" fill="white"/>
<path d="M223.378 352.391L222.769 353.15C222.319 352.665 221.675 352.364 221.049 352.364C219.813 352.364 218.843 353.317 218.843 354.535C218.843 355.752 219.813 356.714 221.049 356.714C221.666 356.714 222.301 356.432 222.769 355.982L223.387 356.67C222.76 357.287 221.869 357.684 220.997 357.684C219.188 357.684 217.785 356.316 217.785 354.543C217.785 352.788 219.205 351.438 221.032 351.438C221.904 351.439 222.778 351.8 223.378 352.391Z" fill="white"/>
<path d="M230.348 354.552C230.348 356.317 228.918 357.684 227.075 357.684C225.231 357.684 223.801 356.316 223.801 354.552C223.801 352.778 225.231 351.438 227.075 351.438C228.918 351.439 230.348 352.789 230.348 354.552ZM224.86 354.552C224.86 355.779 225.874 356.749 227.083 356.749C228.291 356.749 229.279 355.779 229.279 354.552C229.279 353.326 228.291 352.373 227.083 352.373C225.866 352.374 224.86 353.326 224.86 354.552Z" fill="white"/>
<path d="M235.79 357.641L232.499 353.212V357.641H231.457V351.465H232.48L235.79 355.903V351.465H236.813V357.641H235.79Z" fill="white"/>
<path d="M239.483 352.4V354.182H242.289V355.108H239.483V357.64H238.441V351.464H242.589L242.58 352.399H239.483V352.4Z" fill="white"/>
<path d="M243.512 357.641V351.465H244.553V357.641H243.512Z" fill="white"/>
<path d="M248.964 355.771C248.876 355.78 248.78 355.78 248.682 355.78H247.218V357.641H246.176V351.465H248.682C250.26 351.465 251.17 352.233 251.17 353.573C251.17 354.562 250.711 355.259 249.89 355.576L251.276 357.64H250.093L248.964 355.771ZM248.682 354.844C249.635 354.844 250.181 354.439 250.181 353.6C250.181 352.788 249.634 352.399 248.682 352.399H247.218V354.843H248.682V354.844Z" fill="white"/>
<path d="M258.117 357.641L258.108 353.027L256.159 356.997H255.48L253.53 353.027V357.641H252.551V351.465H253.787L255.824 355.567L257.854 351.465H259.08V357.641H258.117Z" fill="white"/>
<path d="M261.752 352.4V354.067H264.769V355.003H261.752V356.705H265.228V357.64H260.711V351.464H265.123V352.399H261.752V352.4Z" fill="white"/>
<path d="M269.028 351.465C270.882 351.465 272.222 352.762 272.222 354.552C272.222 356.335 270.873 357.64 269.002 357.64H266.496V351.464H269.028V351.465ZM267.538 356.706H269.056C270.255 356.706 271.173 355.815 271.173 354.562C271.173 353.3 270.229 352.4 269.011 352.4H267.538V356.706Z" fill="white"/>
<path d="M178.897 235.42L309.394 234.473L313.031 323.194L177.906 321.942L178.897 235.42Z" fill="#FF8500"/>
<path d="M178.898 235.42L245.149 181.812L309.395 234.473" fill="#FF8500"/>
<g opacity="0.3">
<path d="M178.898 235.42L245.149 181.812L309.395 234.473" fill="black"/>
</g>
<path d="M177.908 321.942C177.745 321.789 188.192 310.383 201.24 296.468C214.292 282.548 225 271.391 225.163 271.544C225.325 271.697 214.881 283.101 201.829 297.02C188.782 310.935 178.072 322.095 177.908 321.942Z" fill="#263238"/>
<path d="M313.034 323.194C312.868 323.342 302.693 312.166 290.313 298.235C277.928 284.298 268.027 272.884 268.193 272.736C268.36 272.588 278.532 283.762 290.917 297.698C303.298 311.63 313.202 323.046 313.034 323.194Z" fill="#263238"/>
<g opacity="0.5">
<path d="M309.395 234.473L243.867 286.82L178.898 235.42" fill="black"/>
</g>
<path d="M185.471 240.268L185.281 202.307L299.575 199.511L300.822 241.044L243.861 286.135L185.471 240.268Z" fill="#EBEBEB"/>
<path d="M245.458 272.498C244.378 272.498 243.29 272.436 242.2 272.312C234.653 271.458 227.891 267.715 223.161 261.774C218.429 255.834 216.295 248.405 217.149 240.859C218.914 225.28 233.025 214.039 248.603 215.809C256.149 216.663 262.911 220.406 267.643 226.347C272.374 232.287 274.509 239.715 273.654 247.262C272.8 254.808 269.057 261.57 263.115 266.301C258.032 270.35 251.861 272.498 245.458 272.498ZM245.382 216.606C231.616 216.606 219.71 226.974 218.123 240.97C217.298 248.256 219.359 255.428 223.928 261.165C228.497 266.9 235.024 270.514 242.311 271.339C249.595 272.169 256.769 270.104 262.506 265.536C268.241 260.967 271.855 254.439 272.68 247.152C273.506 239.866 271.445 232.694 266.876 226.958C262.309 221.222 255.78 217.609 248.493 216.783C247.449 216.664 246.409 216.606 245.382 216.606Z" fill="#FF8500"/>
<path d="M226.074 248.009L230.825 242.186L241.941 250.216L260.005 228.926L265.451 233.715L242.22 260.49L226.074 248.009Z" fill="#FF8500"/>
<path d="M368.41 286.492C368.504 287.223 369.507 287.566 370.142 287.193C370.777 286.82 371.019 285.988 370.912 285.258C370.805 284.529 370.417 283.877 370.038 283.245C371.182 283.89 372.848 283.191 373.188 281.924C373.529 280.655 372.437 279.216 371.124 279.201C372.042 279.012 372.983 278.745 373.69 278.131C374.398 277.515 374.805 276.465 374.42 275.61C374.034 274.756 372.701 274.427 372.117 275.16C372.601 274.843 373.099 274.514 373.419 274.032C373.738 273.549 373.834 272.869 373.491 272.404C373.093 271.866 372.278 271.824 371.653 272.065C371.028 272.306 370.511 272.761 369.924 273.082C368.526 273.846 366.71 273.778 365.373 272.909L361.715 275.934L368.41 286.492Z" fill="#263238"/>
<path d="M348.872 269.906C346.838 270.535 345.27 272.459 345.064 274.577C344.989 275.353 345.102 276.193 345.609 276.785C346.216 277.496 347.27 277.69 348.183 277.489C349.097 277.288 349.897 276.755 350.65 276.201C351.71 275.421 352.802 274.444 352.955 273.136C353.105 271.853 352.22 270.584 351.034 270.073C349.848 269.562 348.447 269.725 347.283 270.285" fill="#263238"/>
<path d="M352.049 288.004C351.67 289.285 351.218 290.569 350.428 291.646C349.639 292.723 348.458 293.578 347.128 293.699C345.798 293.821 344.358 293.062 343.947 291.792C343.725 292.553 343.096 293.199 342.322 293.367C341.548 293.535 340.668 293.169 340.304 292.466C339.94 291.764 340.187 290.784 340.878 290.397C340.092 290.84 339.114 291.286 338.336 290.829C337.999 290.63 337.766 290.284 337.646 289.911C337.25 288.681 338.017 287.389 338.863 286.411C339.708 285.433 340.716 284.468 340.927 283.192C341.097 282.168 340.714 281.145 340.463 280.139C340.183 279.016 340.065 277.83 340.321 276.701C340.577 275.572 341.243 274.504 342.251 273.937C343.26 273.369 344.62 273.387 345.513 274.123L345.679 275.792L352.049 288.004Z" fill="#263238"/>
<path d="M367.287 307.425C367.287 307.425 369.575 331.582 367.653 334.729C365.731 337.876 342.214 370.757 342.214 370.757L342.269 370.796C341.813 370.984 341.327 371.177 340.775 371.378C339.956 371.675 339.092 371.823 338.222 371.83C337.166 371.837 335.763 371.79 335.004 371.526C334.063 371.199 333.214 372.185 333.728 372.929C334.241 373.674 336.812 374.637 340.003 374.327C343.193 374.016 339.607 377.564 338.323 378.881C337.039 380.197 333.257 384.456 333.349 385.171C333.485 386.22 334.633 386.269 335.885 384.924C337.152 383.563 341.174 379.813 341.836 380.524C342.489 381.225 335.86 387.837 335.86 387.837C335.86 387.837 334.215 389.021 334.953 389.869C336.284 391.399 342.812 383.85 343.416 383.117C343.835 382.608 344.583 383.354 344.103 383.878C343.609 384.417 337.338 390.319 338.679 391.889C339.707 393.094 344.107 385.731 346.087 385.229C348.069 384.727 342.184 390.474 343.214 391.584C343.597 391.998 343.941 392.253 346.844 388.465C348.473 386.34 351.112 381.833 353.166 378.191C356.256 374.851 386.679 341.808 386.912 335.639C387.158 329.139 388.322 307.154 388.322 307.154L367.287 307.425Z" fill="#EB996E"/>
<path d="M330.991 414.95L330.713 405.982L347.508 405.354L348.054 418.469L347.015 418.575C342.39 419.005 323.469 420.438 320.336 419.614C316.842 418.697 330.991 414.95 330.991 414.95Z" fill="#FF8500"/>
<g opacity="0.4">
<path d="M324.086 417.029C324.086 417.029 319.139 418.659 319.794 419.46C320.449 420.26 339.623 419.531 348.053 418.47L348.012 418.096L325.653 419.136C325.653 419.136 325.065 417.034 324.086 417.029Z" fill="white"/>
</g>
<path d="M348.276 418.076C348.276 418.083 348.177 418.097 347.989 418.118C347.74 418.143 347.468 418.169 347.161 418.199C346.333 418.267 345.315 418.349 344.114 418.446C341.539 418.637 337.979 418.853 334.042 419.006C330.105 419.158 326.537 419.218 323.956 419.227C322.751 419.223 321.729 419.22 320.898 419.217C320.59 419.21 320.317 419.205 320.067 419.199C319.877 419.193 319.777 419.186 319.777 419.179C319.777 419.173 319.877 419.165 320.066 419.158C320.316 419.151 320.589 419.145 320.897 419.137C321.728 419.123 322.749 419.105 323.953 419.083C326.533 419.037 330.098 418.955 334.033 418.803C337.967 418.65 341.527 418.457 344.103 418.303C345.305 418.232 346.325 418.17 347.154 418.121C347.461 418.104 347.735 418.091 347.984 418.078C348.175 418.069 348.275 418.068 348.276 418.076Z" fill="#263238"/>
<path d="M325.668 419.397C325.607 419.407 325.531 418.68 325.043 417.961C324.567 417.234 323.925 416.885 323.958 416.832C323.968 416.781 324.7 417.07 325.213 417.848C325.733 418.621 325.719 419.407 325.668 419.397Z" fill="#263238"/>
<path d="M330.529 416.694C330.483 416.726 330.235 416.446 329.976 416.07C329.716 415.694 329.543 415.362 329.589 415.33C329.636 415.298 329.883 415.578 330.143 415.954C330.402 416.331 330.575 416.663 330.529 416.694Z" fill="#263238"/>
<path d="M331.861 415.924C331.825 415.967 331.553 415.8 331.255 415.551C330.956 415.302 330.742 415.065 330.777 415.022C330.814 414.979 331.085 415.146 331.385 415.395C331.684 415.644 331.897 415.881 331.861 415.924Z" fill="#263238"/>
<path d="M332.66 414.306C332.663 414.362 332.272 414.427 331.788 414.451C331.304 414.474 330.909 414.448 330.906 414.392C330.903 414.336 331.294 414.271 331.778 414.247C332.263 414.223 332.658 414.25 332.66 414.306Z" fill="#263238"/>
<path d="M332.912 413.177C332.933 413.226 332.512 413.436 331.945 413.498C331.378 413.565 330.921 413.455 330.93 413.402C330.937 413.343 331.383 413.359 331.922 413.296C332.462 413.237 332.892 413.122 332.912 413.177Z" fill="#263238"/>
<path d="M329.902 415.251C329.904 415.274 329.491 415.341 328.822 415.286C328.488 415.258 328.092 415.195 327.664 415.076C327.451 415.009 327.228 414.961 326.995 414.83C326.885 414.762 326.763 414.667 326.715 414.505C326.664 414.345 326.743 414.16 326.862 414.068C327.873 413.494 328.928 414.035 329.332 414.554C329.553 414.818 329.659 415.079 329.711 415.26C329.761 415.444 329.762 415.548 329.75 415.55C329.713 415.566 329.661 415.128 329.224 414.649C329.008 414.414 328.687 414.189 328.279 414.084C327.894 413.986 327.35 413.976 326.996 414.221C326.83 414.354 326.904 414.553 327.099 414.66C327.281 414.767 327.514 414.828 327.716 414.896C328.129 415.021 328.513 415.098 328.838 415.143C329.488 415.233 329.9 415.218 329.902 415.251Z" fill="#263238"/>
<path d="M329.625 415.315C329.611 415.328 329.441 415.058 329.473 414.57C329.49 414.331 329.567 414.045 329.737 413.771C329.919 413.524 330.151 413.185 330.615 413.187C330.867 413.209 330.999 413.489 330.967 413.673C330.954 413.863 330.876 414.028 330.801 414.162C330.652 414.437 330.478 414.663 330.316 414.834C329.99 415.177 329.728 415.314 329.716 415.295C329.696 415.269 329.923 415.093 330.208 414.74C330.349 414.564 330.502 414.341 330.635 414.076C330.775 413.842 330.86 413.429 330.588 413.39C330.316 413.374 330.051 413.653 329.894 413.875C329.733 414.115 329.649 414.37 329.616 414.588C329.55 415.03 329.662 415.305 329.625 415.315Z" fill="#263238"/>
<path d="M347.76 413.493C347.758 413.532 347.277 413.466 346.521 413.584C345.773 413.697 344.739 414.045 343.857 414.803C342.976 415.562 342.478 416.533 342.255 417.258C342.026 417.988 342.02 418.472 341.982 418.469C341.969 418.469 341.959 418.348 341.968 418.13C341.977 417.912 342.017 417.597 342.117 417.217C342.309 416.464 342.804 415.441 343.723 414.649C344.643 413.858 345.728 413.52 346.502 413.441C346.892 413.399 347.209 413.406 347.426 413.43C347.643 413.453 347.761 413.481 347.76 413.493Z" fill="#263238"/>
<path d="M345.754 406.571C345.81 406.568 345.934 408.109 346.03 410.014C346.127 411.92 346.16 413.466 346.104 413.469C346.048 413.472 345.923 411.93 345.827 410.025C345.73 408.12 345.698 406.574 345.754 406.571Z" fill="#263238"/>
<path d="M339.785 417.009C339.794 417.061 338.707 417.282 337.343 417.345C335.978 417.411 334.875 417.295 334.879 417.241C334.882 417.182 335.981 417.208 337.333 417.141C338.684 417.079 339.776 416.95 339.785 417.009Z" fill="#263238"/>
<path d="M343.076 416.879C343.118 416.918 342.995 417.115 342.893 417.371C342.787 417.626 342.738 417.852 342.679 417.851C342.624 417.853 342.582 417.59 342.704 417.295C342.823 416.999 343.038 416.839 343.076 416.879Z" fill="#263238"/>
<path d="M344.258 415.288C344.3 415.326 344.198 415.504 344.031 415.688C343.864 415.87 343.695 415.987 343.654 415.949C343.613 415.911 343.713 415.733 343.881 415.549C344.048 415.367 344.216 415.25 344.258 415.288Z" fill="#263238"/>
<path d="M346.005 414.516C345.996 414.573 345.772 414.579 345.529 414.675C345.283 414.765 345.113 414.909 345.068 414.873C345.021 414.844 345.154 414.6 345.457 414.485C345.758 414.369 346.02 414.463 346.005 414.516Z" fill="#263238"/>
<path d="M347.254 414.134C347.277 414.186 347.184 414.275 347.046 414.335C346.909 414.395 346.78 414.401 346.757 414.349C346.735 414.297 346.828 414.208 346.965 414.148C347.102 414.089 347.232 414.083 347.254 414.134Z" fill="#263238"/>
<g opacity="0.3">
<path d="M347.717 413.045L330.93 413.402L330.879 411.38L347.81 411.976L347.717 413.045Z" fill="black"/>
</g>
<path d="M394.23 354.114L341.131 353.388C341.131 353.388 326.348 354.801 326.348 374.004L328.221 411.905H350.843L349.299 375.585C350.568 375.601 367.699 376.155 367.699 376.155L394.23 354.114Z" fill="#263238"/>
<path d="M328.221 411.905C328.203 411.905 328.179 411.679 328.149 411.249C328.122 410.766 328.086 410.142 328.043 409.367C327.945 407.671 327.81 405.321 327.644 402.445C327.297 396.601 326.633 388.539 326.194 379.608C326.036 375.148 325.697 370.872 326.228 366.983C326.372 366.014 326.534 365.08 326.811 364.18C327.094 363.287 327.47 362.46 327.892 361.695C328.767 360.178 329.85 358.937 330.973 357.972C332.096 357.002 333.255 356.313 334.305 355.791C335.375 355.308 336.327 354.97 337.125 354.766C337.517 354.672 337.871 354.587 338.188 354.51C338.487 354.464 338.75 354.424 338.979 354.389C339.407 354.326 339.632 354.302 339.635 354.319C339.638 354.336 339.417 354.395 338.998 354.49C338.772 354.539 338.515 354.594 338.222 354.658C337.911 354.747 337.564 354.846 337.18 354.957C336.399 355.187 335.469 355.549 334.43 356.047C333.412 356.584 332.291 357.28 331.21 358.242C330.131 359.201 329.093 360.422 328.261 361.901C327.859 362.647 327.503 363.451 327.24 364.31C326.983 365.166 326.826 366.1 326.693 367.045C326.195 370.855 326.543 375.125 326.702 379.583C327.14 388.501 327.746 396.571 328.002 402.424C328.142 405.351 328.208 407.72 328.239 409.359C328.243 410.136 328.247 410.762 328.249 411.245C328.248 411.677 328.238 411.904 328.221 411.905Z" fill="#455A64"/>
<path d="M429.562 414.966L420.61 415.56L419.391 398.798L432.479 397.791L432.621 398.826C433.214 403.433 435.312 422.291 434.599 425.451C433.805 428.975 429.562 414.966 429.562 414.966Z" fill="#FF8500"/>
<g opacity="0.4">
<path d="M431.883 421.793C431.883 421.793 433.686 426.68 434.462 425.997C435.24 425.315 433.836 406.178 432.478 397.79L432.106 397.844L433.932 420.153C433.932 420.153 431.853 420.814 431.883 421.793Z" fill="white"/>
</g>
<path d="M432.077 397.582C432.084 397.581 432.102 397.68 432.129 397.868C432.163 398.115 432.199 398.387 432.24 398.692C432.336 399.518 432.455 400.532 432.595 401.73C432.876 404.296 433.217 407.847 433.509 411.775C433.8 415.704 433.985 419.267 434.085 421.847C434.124 423.051 434.156 424.073 434.182 424.903C434.186 425.211 434.191 425.484 434.194 425.734C434.195 425.924 434.191 426.024 434.184 426.024C434.177 426.024 434.167 425.925 434.153 425.736C434.137 425.487 434.122 425.213 434.103 424.906C434.059 424.076 434.005 423.056 433.941 421.854C433.804 419.276 433.596 415.718 433.306 411.79C433.014 407.863 432.696 404.313 432.452 401.744C432.337 400.545 432.24 399.528 432.162 398.701C432.134 398.394 432.111 398.122 432.089 397.873C432.075 397.683 432.07 397.583 432.077 397.582Z" fill="#263238"/>
<path d="M434.192 420.129C434.204 420.191 433.48 420.292 432.779 420.805C432.07 421.306 431.744 421.961 431.69 421.929C431.639 421.92 431.901 421.18 432.661 420.64C433.414 420.092 434.2 420.078 434.192 420.129Z" fill="#263238"/>
<path d="M431.322 415.367C431.355 415.412 431.085 415.67 430.717 415.942C430.35 416.215 430.025 416.4 429.991 416.354C429.958 416.309 430.228 416.051 430.595 415.779C430.963 415.507 431.289 415.322 431.322 415.367Z" fill="#263238"/>
<path d="M430.507 414.063C430.551 414.097 430.394 414.374 430.156 414.682C429.918 414.99 429.688 415.211 429.644 415.177C429.6 415.143 429.757 414.865 429.995 414.558C430.233 414.25 430.462 414.029 430.507 414.063Z" fill="#263238"/>
<path d="M428.861 413.321C428.916 413.316 428.995 413.704 429.036 414.187C429.077 414.67 429.064 415.066 429.008 415.07C428.953 415.075 428.874 414.687 428.833 414.204C428.792 413.722 428.804 413.326 428.861 413.321Z" fill="#263238"/>
<path d="M427.724 413.108C427.773 413.086 427.996 413.498 428.08 414.063C428.166 414.628 428.072 415.088 428.019 415.08C427.96 415.075 427.96 414.629 427.878 414.092C427.799 413.556 427.669 413.13 427.724 413.108Z" fill="#263238"/>
<path d="M429.902 416.043C429.925 416.04 430.006 416.45 429.975 417.121C429.959 417.456 429.909 417.854 429.806 418.287C429.746 418.502 429.707 418.726 429.584 418.963C429.52 419.074 429.429 419.2 429.268 419.254C429.11 419.31 428.922 419.237 428.826 419.123C428.218 418.132 428.72 417.059 429.225 416.637C429.482 416.407 429.739 416.291 429.918 416.233C430.099 416.177 430.204 416.173 430.207 416.184C430.224 416.222 429.789 416.288 429.324 416.742C429.097 416.967 428.883 417.296 428.794 417.706C428.709 418.094 428.718 418.638 428.975 418.983C429.114 419.145 429.31 419.064 429.41 418.866C429.511 418.68 429.564 418.445 429.624 418.242C429.735 417.824 429.797 417.438 429.832 417.111C429.898 416.457 429.87 416.045 429.902 416.043Z" fill="#263238"/>
<path d="M429.974 416.319C429.987 416.333 429.723 416.513 429.235 416.498C428.995 416.489 428.707 416.423 428.427 416.262C428.174 416.089 427.826 415.869 427.812 415.405C427.826 415.154 428.102 415.01 428.286 415.037C428.476 415.043 428.645 415.115 428.781 415.185C429.061 415.325 429.292 415.491 429.47 415.646C429.824 415.959 429.97 416.217 429.951 416.23C429.926 416.25 429.742 416.029 429.38 415.757C429.198 415.622 428.97 415.478 428.7 415.353C428.462 415.222 428.046 415.152 428.016 415.425C428.01 415.697 428.299 415.952 428.526 416.101C428.771 416.253 429.03 416.329 429.248 416.354C429.691 416.404 429.964 416.284 429.974 416.319Z" fill="#263238"/>
<path d="M427.517 398.26C427.555 398.261 427.506 398.743 427.651 399.495C427.789 400.239 428.174 401.26 428.962 402.116C429.753 402.969 430.741 403.433 431.472 403.629C432.209 403.832 432.694 403.821 432.692 403.859C432.692 403.872 432.573 403.886 432.354 403.884C432.136 403.883 431.819 403.854 431.437 403.768C430.677 403.603 429.638 403.144 428.813 402.253C427.991 401.362 427.615 400.289 427.509 399.519C427.453 399.13 427.449 398.812 427.465 398.595C427.481 398.378 427.505 398.259 427.517 398.26Z" fill="#263238"/>
<path d="M420.668 400.509C420.663 400.454 422.2 400.275 424.1 400.112C426.001 399.948 427.546 399.861 427.55 399.917C427.554 399.972 426.018 400.151 424.118 400.314C422.217 400.478 420.673 400.565 420.668 400.509Z" fill="#263238"/>
<path d="M431.309 406.106C431.361 406.095 431.621 407.174 431.731 408.535C431.846 409.896 431.768 411.002 431.715 411C431.656 410.999 431.642 409.9 431.529 408.551C431.419 407.204 431.25 406.117 431.309 406.106Z" fill="#263238"/>
<path d="M431.064 402.822C431.102 402.778 431.302 402.895 431.562 402.988C431.82 403.085 432.048 403.126 432.049 403.184C432.053 403.238 431.79 403.29 431.491 403.179C431.192 403.07 431.026 402.86 431.064 402.822Z" fill="#263238"/>
<path d="M429.432 401.697C429.468 401.654 429.651 401.75 429.84 401.91C430.028 402.071 430.151 402.235 430.115 402.278C430.079 402.321 429.897 402.225 429.707 402.066C429.519 401.905 429.396 401.739 429.432 401.697Z" fill="#263238"/>
<path d="M428.601 399.977C428.658 399.985 428.673 400.208 428.777 400.448C428.876 400.69 429.026 400.855 428.991 400.902C428.963 400.949 428.714 400.826 428.589 400.527C428.463 400.228 428.548 399.964 428.601 399.977Z" fill="#263238"/>
<path d="M428.173 398.74C428.224 398.716 428.317 398.806 428.381 398.941C428.444 399.077 428.455 399.206 428.405 399.23C428.354 399.254 428.261 399.164 428.197 399.029C428.133 398.893 428.122 398.764 428.173 398.74Z" fill="#263238"/>
<g opacity="0.3">
<path d="M427.067 398.316L428.016 415.081L425.996 415.202V398.26L427.067 398.316Z" fill="black"/>
</g>
<path d="M374.654 398.391L374.666 398.406C374.666 398.406 419.907 373.703 425.033 365.663C430.319 357.373 426.548 349.59 426.548 349.59L388.475 354.67L361.401 381.79C355.498 386.469 344.863 396.235 344.863 405.865C344.863 422.352 366.175 419.658 381.475 419.693C402.394 419.74 425.864 419.837 425.864 419.837L425.923 397.365L374.654 398.391Z" fill="#263238"/>
<path d="M363.911 403.092C363.959 403.202 366.454 402.224 369.483 400.905C372.512 399.586 374.929 398.427 374.88 398.316C374.832 398.205 372.337 399.183 369.308 400.503C366.279 401.822 363.862 402.98 363.911 403.092Z" fill="#455A64"/>
<path d="M367.469 397.582C367.465 397.704 369.237 397.86 371.425 397.931C373.614 398.003 375.392 397.961 375.396 397.841C375.4 397.719 373.629 397.564 371.439 397.493C369.251 397.421 367.473 397.461 367.469 397.582Z" fill="#455A64"/>
<path d="M385.485 358.463C385.497 358.476 385.35 358.638 385.059 358.935C384.726 359.265 384.299 359.688 383.768 360.214C382.586 361.352 380.954 362.923 378.957 364.847C374.819 368.762 369.18 374.097 362.95 379.992C359.828 382.953 356.784 385.708 354.147 388.328C351.521 390.956 349.361 393.533 347.911 395.932C346.423 398.312 345.702 400.494 345.34 402.012C345.258 402.387 345.185 402.726 345.119 403.031C345.079 403.316 345.044 403.567 345.012 403.788C344.951 404.198 344.91 404.414 344.893 404.413C344.875 404.412 344.881 404.193 344.91 403.778C344.928 403.553 344.948 403.298 344.969 403.008C345.01 402.707 345.079 402.361 345.146 401.971C345.451 400.422 346.132 398.184 347.601 395.747C349.032 393.29 351.19 390.66 353.813 387.998C356.449 385.343 359.477 382.583 362.6 379.621C368.87 373.768 374.545 368.471 378.709 364.585C380.752 362.711 382.422 361.179 383.631 360.07C384.188 359.574 384.638 359.173 384.987 358.861C385.303 358.587 385.474 358.451 385.485 358.463Z" fill="#455A64"/>
<path d="M371.897 309.372C367.85 311.557 362.801 309.756 361.05 305.503C360.098 303.191 359.331 301.305 359.331 301.305C359.331 301.305 353.487 303.377 350.512 298.023C348.839 295.014 346.481 289.874 344.736 285.948C343.26 282.628 343.617 278.782 345.68 275.792C350.473 269.742 354.272 270.756 361.89 271.994L363.021 272.178L375.281 299.369C376.952 303.074 375.475 307.442 371.897 309.372Z" fill="#FFBE9D"/>
<path d="M348.471 288.597C348.635 288.134 348.392 287.626 347.928 287.462C347.465 287.299 346.957 287.542 346.793 288.005C346.63 288.469 346.873 288.976 347.336 289.14C347.8 289.304 348.308 289.061 348.471 288.597Z" fill="#263238"/>
<path d="M346.058 287.702C346.193 287.75 346.502 287.057 347.243 286.652C347.978 286.236 348.729 286.34 348.76 286.2C348.777 286.136 348.602 286.013 348.271 285.961C347.944 285.908 347.455 285.95 346.996 286.206C346.536 286.461 346.242 286.854 346.115 287.16C345.982 287.468 345.994 287.682 346.058 287.702Z" fill="#263238"/>
<path d="M354.917 284.228C354.671 284.653 354.816 285.197 355.241 285.443C355.666 285.689 356.21 285.544 356.456 285.118C356.702 284.693 356.557 284.149 356.132 283.903C355.707 283.657 355.164 283.803 354.917 284.228Z" fill="#263238"/>
<path d="M354.174 284.027C354.309 284.075 354.618 283.382 355.359 282.977C356.094 282.562 356.846 282.665 356.876 282.525C356.894 282.462 356.718 282.338 356.387 282.286C356.061 282.233 355.572 282.275 355.112 282.531C354.652 282.786 354.358 283.179 354.231 283.484C354.1 283.793 354.112 284.007 354.174 284.027Z" fill="#263238"/>
<path d="M354.805 291.888C354.779 291.827 354.269 291.982 353.467 292.282C353.262 292.365 353.086 292.404 353.016 292.308C352.918 292.209 352.88 291.961 352.855 291.677C352.781 291.083 352.706 290.481 352.628 289.851C352.279 287.264 351.89 285.182 351.758 285.2C351.627 285.217 351.803 287.328 352.152 289.915C352.243 290.544 352.331 291.143 352.417 291.735C352.467 291.998 352.474 292.333 352.746 292.6C352.886 292.731 353.102 292.764 353.248 292.729C353.398 292.699 353.508 292.64 353.603 292.594C354.369 292.215 354.831 291.95 354.805 291.888Z" fill="#263238"/>
<path d="M359.281 301.232C359.281 301.232 362.838 299.67 365.23 295.443C365.23 295.443 365.663 300.218 360.022 302.636L359.281 301.232Z" fill="#EB996E"/>
<path d="M365.469 278.21C365.56 278.118 369.78 275.611 371.036 280.224C372.122 284.212 367.614 284.898 367.559 284.772C367.503 284.647 365.469 278.21 365.469 278.21Z" fill="#FFBE9D"/>
<path d="M368.372 282.43C368.385 282.412 368.455 282.452 368.587 282.463C368.714 282.472 368.915 282.437 369.086 282.29C369.434 281.994 369.537 281.23 369.302 280.537C369.184 280.186 368.989 279.883 368.766 279.655C368.546 279.419 368.295 279.291 368.079 279.329C367.86 279.357 367.761 279.531 367.755 279.656C367.743 279.781 367.795 279.848 367.777 279.862C367.77 279.875 367.672 279.828 367.645 279.66C367.633 279.578 367.644 279.472 367.707 279.366C367.77 279.258 367.891 279.171 368.038 279.133C368.339 279.045 368.703 279.218 368.949 279.469C369.212 279.715 369.438 280.052 369.57 280.446C369.829 281.222 369.702 282.085 369.21 282.448C368.968 282.616 368.714 282.618 368.566 282.571C368.413 282.519 368.361 282.442 368.372 282.43Z" fill="#EB996E"/>
<path d="M363.515 308.713C363.515 308.713 374.052 291.035 390.34 305.913C400.968 315.621 418.313 335.628 424.51 343.469C425.899 345.228 428.072 347.896 426.55 349.542C421.906 354.567 409.245 365.814 385.809 357.423L363.6 326.465C359.8 321.168 359.766 314.047 363.515 308.713Z" fill="#FF8500"/>
<path d="M377.023 300.299L374.05 295.442L358.879 307.513L361.713 312.072L377.023 300.299Z" fill="#FF8500"/>
<g opacity="0.3">
<path d="M376.373 300.925C376.373 300.925 364.428 311.255 364.255 311.084C364.082 310.914 359.484 307.593 359.484 307.593L363.694 309.953L376.373 300.925Z" fill="black"/>
</g>
<path d="M377.145 300.242C377.129 300.216 376.858 300.365 376.384 300.657C375.91 300.95 375.237 301.392 374.418 301.956C372.777 303.081 370.57 304.717 368.138 306.521C366.483 307.747 364.923 308.873 363.589 309.796L363.784 309.787C362.367 309.02 361.182 308.39 360.347 307.962C359.512 307.534 359.027 307.307 359.008 307.342C358.99 307.377 359.441 307.671 360.244 308.156C361.048 308.641 362.206 309.317 363.604 310.118L363.701 310.174L363.799 310.109C365.16 309.215 366.742 308.102 368.399 306.874C370.774 305.087 372.922 303.47 374.599 302.208C375.331 301.66 375.957 301.189 376.481 300.798C376.925 300.464 377.162 300.267 377.145 300.242Z" fill="#263238"/>
<path d="M312.374 346.618L309.492 345.445C309.492 345.445 307.635 345.017 304.607 343.571C303.821 343.196 303.11 342.683 302.495 342.067C301.751 341.319 300.8 340.286 300.456 339.559C300.03 338.66 298.731 338.746 298.561 339.634C298.39 340.522 299.503 343.03 301.962 345.088C304.42 347.146 299.376 347.075 297.537 347.082C295.698 347.089 290.009 347.377 289.563 347.944C288.91 348.775 289.68 349.63 291.516 349.58C293.376 349.53 298.87 349.769 298.827 350.74C298.785 351.697 289.423 351.604 289.423 351.604C289.423 351.604 287.425 351.26 287.338 352.382C287.18 354.403 297.14 353.768 298.086 353.685C298.744 353.627 298.735 354.684 298.026 354.708C297.296 354.734 288.689 354.398 288.51 356.455C288.372 358.033 296.707 356.01 298.453 357.071C300.199 358.132 291.976 357.963 291.906 359.476C291.879 360.039 291.938 360.463 296.674 359.879C301.525 359.28 314.403 355.519 314.403 355.519L312.232 346.498" fill="#FFBE9D"/>
<path d="M368.671 314.855C368.671 314.855 353.177 336.219 349.585 337.054C345.994 337.889 306.059 344.163 306.059 344.163L308.056 357.198C308.056 357.198 357.628 355.812 362.437 351.431C367.245 347.05 381.743 324.774 381.743 324.774L368.671 314.855Z" fill="#FFBE9D"/>
<path d="M357.763 351.055C357.747 351.073 357.869 351.231 358.175 351.413C358.48 351.587 358.988 351.776 359.64 351.725C360.282 351.686 361.074 351.317 361.55 350.575C362.038 349.869 362.208 348.762 361.68 347.858C361.427 347.413 361.019 347.052 360.539 346.903C360.065 346.757 359.557 346.794 359.146 347.01C358.282 347.466 358.153 348.547 358.563 349.112C359.003 349.711 359.681 349.675 360 349.542C360.349 349.396 360.431 349.178 360.411 349.172C360.384 349.145 360.258 349.304 359.948 349.379C359.662 349.453 359.103 349.401 358.825 348.945C358.543 348.512 358.69 347.67 359.33 347.371C359.64 347.216 360.042 347.193 360.407 347.312C360.77 347.43 361.092 347.711 361.3 348.075C361.733 348.814 361.612 349.732 361.211 350.355C360.817 351.002 360.173 351.339 359.606 351.414C358.427 351.566 357.791 350.975 357.763 351.055Z" fill="#EB996E"/>
<path d="M386.356 321.36L371.642 346.597L354.695 332.559C354.695 332.559 366.432 313.338 371.984 307.376L386.356 321.36Z" fill="#FF8500"/>
<path d="M344.194 369.538C344.217 369.411 346.151 370.104 347.626 372.051C349.122 373.983 349.287 376.031 349.159 376.02C349.006 376.059 348.63 374.173 347.221 372.362C345.839 370.529 344.116 369.675 344.194 369.538Z" fill="#455A64"/>
<path d="M361.75 280.504C361.926 280.919 362.37 281.158 362.81 281.255C363.249 281.352 363.705 281.341 364.147 281.425C364.843 281.557 365.49 281.933 365.948 282.472C366.148 282.707 366.317 282.975 366.564 283.16C366.811 283.344 367.174 283.425 367.424 283.244C367.819 282.959 367.639 282.343 367.42 281.908C366.506 280.084 365.592 278.259 364.677 276.435L359.484 277.563L361.717 280.163" fill="#263238"/>
<path d="M344.783 274.302C345.385 273.582 346.279 272.998 346.981 273.619C347.684 274.24 347.987 275.191 348.201 276.103C348.416 277.017 348.586 277.971 349.114 278.747C349.778 279.724 351.002 280.29 352.176 280.163C353.351 280.037 354.426 279.225 354.868 278.129C355.575 279.191 356.301 280.275 357.322 281.04C358.342 281.807 359.73 282.208 360.918 281.74C362.105 281.273 362.869 279.751 362.255 278.633C362.938 279.149 363.755 279.541 364.612 279.537C365.468 279.533 366.356 279.063 366.673 278.266C366.99 277.47 366.553 276.406 365.718 276.214C366.672 276.84 368.024 276.847 368.925 276.146C369.827 275.447 370.142 274.054 369.547 273.08C368.952 272.106 367.478 271.773 366.572 272.467C367.213 272.077 367.886 271.656 368.235 270.992C368.584 270.327 368.453 269.349 367.772 269.033C366.954 268.654 366.081 269.41 365.194 269.574C363.746 269.839 362.561 268.536 361.389 267.646C359.272 266.037 356.406 265.604 353.801 266.133C351.195 266.662 348.834 268.076 346.834 269.828C345.524 270.975 344.254 272.644 344.783 274.302Z" fill="#263238"/>
<path d="M347.857 284.865C347.866 285.292 347.448 285.649 346.965 285.849C346.476 286.037 345.927 286.065 345.641 285.748C345.356 285.442 345.634 284.732 346.398 284.427C347.163 284.123 347.853 284.447 347.857 284.865Z" fill="#263238"/>
<path d="M355.62 281.145C355.538 281.567 355.016 281.829 354.496 282.078C353.964 282.299 353.419 282.512 353.051 282.292C352.88 282.173 352.819 281.91 352.948 281.582C353.071 281.258 353.401 280.891 353.872 280.681C354.343 280.47 354.836 280.471 355.161 280.596C355.49 280.718 355.646 280.94 355.62 281.145Z" fill="#263238"/>
<path d="M357.869 290.176C357.997 290.124 358.325 291.12 357.832 292.233C357.349 293.351 356.395 293.785 356.347 293.657C356.264 293.534 356.959 292.986 357.365 292.029C357.793 291.082 357.723 290.2 357.869 290.176Z" fill="#263238"/>
<path d="M369.175 274.517C369.182 274.53 369.108 274.581 368.952 274.655C368.793 274.719 368.544 274.799 368.208 274.811C367.576 274.835 366.435 274.573 365.834 273.404L366.103 273.459C365.369 274.159 364.216 274.714 362.87 274.746C361.547 274.788 359.99 274.32 358.914 273.105L359.35 272.933C359.39 273.606 358.974 274.25 358.426 274.6C357.879 274.962 357.204 275.142 356.523 275.058C355.376 274.885 354.529 274.139 353.857 273.428C353.178 272.698 352.639 271.933 352.012 271.331C351.399 270.72 350.697 270.272 349.962 270.145C349.228 270.01 348.507 270.16 347.905 270.398C346.69 270.894 345.92 271.714 345.39 272.232C344.866 272.772 344.582 273.082 344.553 273.056C344.528 273.036 344.758 272.686 345.243 272.099C345.736 271.535 346.474 270.648 347.766 270.064C348.403 269.788 349.189 269.594 350.033 269.727C350.881 269.854 351.682 270.356 352.339 270.992C353.012 271.623 353.57 272.395 354.221 273.085C354.863 273.766 355.656 274.417 356.586 274.551C357.665 274.699 358.909 273.935 358.854 272.954L358.813 272.233L359.29 272.781C360.231 273.864 361.639 274.324 362.861 274.309C364.103 274.305 365.171 273.827 365.872 273.211L366.046 273.059L366.141 273.266C366.605 274.281 367.621 274.602 368.209 274.627C368.835 274.654 369.159 274.472 369.175 274.517Z" fill="#455A64"/>
<path d="M388.82 317.462C388.771 317.463 388.776 316.877 388.593 315.849C388.405 314.829 387.992 313.348 386.992 311.78C386.009 310.227 384.408 308.567 382.148 307.628C379.913 306.687 377.074 306.458 374.406 307.358C373.077 307.806 371.889 308.529 370.84 309.356C369.791 310.178 368.887 311.106 368.097 312.05C366.518 313.943 365.374 315.877 364.376 317.468C363.392 319.071 362.59 320.369 361.996 321.241C361.706 321.681 361.462 322.01 361.299 322.236C361.134 322.459 361.04 322.571 361.026 322.561C360.994 322.54 361.291 322.039 361.828 321.135C362.401 320.15 363.155 318.852 364.067 317.283C365.027 315.666 366.142 313.701 367.735 311.75C369.327 309.832 371.427 307.847 374.242 306.874C377.04 305.93 380.004 306.186 382.331 307.195C384.69 308.203 386.323 309.963 387.298 311.59C388.289 313.233 388.657 314.77 388.788 315.819C388.851 316.346 388.87 316.759 388.857 317.038C388.851 317.317 388.838 317.462 388.82 317.462Z" fill="#263238"/>
<path d="M384.494 326.691C384.449 326.7 384.569 326.288 384.099 325.893C383.876 325.695 383.542 325.565 383.109 325.521C382.687 325.46 382.145 325.488 381.579 325.244C380.422 324.768 379.669 323.422 379.281 321.981C379.079 321.257 378.921 320.496 378.649 319.762C378.384 319.03 377.977 318.326 377.325 317.864C376.678 317.397 375.882 317.187 375.108 317.094C374.329 317.001 373.562 317.032 372.817 317.053C371.341 317.108 369.91 317.049 368.858 316.466C367.818 315.903 367.266 315.035 367.124 314.399C367.041 314.08 367.061 313.821 367.076 313.655C367.109 313.487 367.135 313.403 367.152 313.406C367.204 313.409 367.118 313.768 367.315 314.343C367.5 314.909 368.051 315.669 369.024 316.145C369.989 316.632 371.331 316.665 372.8 316.582C374.245 316.525 376.064 316.384 377.623 317.45C378.386 317.99 378.844 318.812 379.118 319.591C379.4 320.377 379.549 321.15 379.734 321.859C380.083 323.253 380.754 324.477 381.724 324.915C382.191 325.144 382.702 325.15 383.152 325.239C383.604 325.31 384.008 325.5 384.233 325.749C384.47 325.99 384.562 326.26 384.558 326.436C384.558 326.613 384.506 326.695 384.494 326.691Z" fill="#FAFAFA"/>
<path d="M378.643 335.076C378.591 335.089 378.565 334.745 378.224 334.293C377.898 333.837 377.207 333.34 376.226 333.053C375.261 332.731 373.99 332.765 372.613 332.316C371.933 332.095 371.216 331.668 370.751 330.993C370.285 330.335 370.034 329.576 369.611 328.956C368.75 327.703 367.195 327.281 365.891 326.959C364.553 326.647 363.281 326.31 362.4 325.634C361.521 324.972 361.1 324.123 361.01 323.523C360.918 322.913 361.068 322.589 361.089 322.598C361.136 322.603 361.06 322.933 361.204 323.481C361.344 324.021 361.778 324.77 362.61 325.342C363.44 325.923 364.645 326.214 365.998 326.502C366.676 326.654 367.404 326.835 368.119 327.152C368.83 327.467 369.549 327.95 370.032 328.668C370.506 329.375 370.751 330.129 371.16 330.706C371.555 331.286 372.144 331.653 372.769 331.873C374.026 332.316 375.317 332.327 376.339 332.711C377.36 333.058 378.088 333.648 378.39 334.183C378.55 334.445 378.613 334.678 378.641 334.833C378.66 334.991 378.661 335.073 378.643 335.076Z" fill="#FAFAFA"/>
<path d="M405.692 321.795C405.707 321.797 405.704 321.938 405.658 322.203C405.605 322.466 405.49 322.854 405.233 323.302C404.736 324.208 403.596 325.268 401.933 326.032C401.11 326.421 400.179 326.762 399.221 327.187C398.266 327.612 397.275 328.138 396.472 328.97C394.801 330.615 393.986 333.162 392.816 335.656C392.226 336.905 391.529 338.121 390.541 339.042C390.294 339.27 390.051 339.497 389.768 339.673C389.499 339.866 389.227 340.049 388.931 340.183C388.351 340.471 387.746 340.661 387.154 340.797C384.772 341.302 382.606 341.175 380.909 341.713C379.195 342.179 378.098 343.239 377.626 344.09C377.137 344.953 377.184 345.549 377.122 345.536C377.108 345.536 377.088 345.395 377.114 345.127C377.137 344.859 377.219 344.459 377.451 343.997C377.887 343.073 379.02 341.9 380.804 341.368C382.56 340.768 384.773 340.853 387.046 340.339C387.612 340.202 388.178 340.017 388.714 339.746C388.988 339.621 389.237 339.449 389.484 339.268C389.744 339.106 389.969 338.893 390.196 338.679C391.109 337.821 391.777 336.662 392.355 335.435C393.508 332.993 394.344 330.38 396.141 328.636C397.012 327.755 398.074 327.214 399.051 326.799C400.037 326.382 400.968 326.064 401.783 325.703C403.416 325.001 404.538 324.03 405.064 323.197C405.603 322.364 405.637 321.779 405.692 321.795Z" fill="#FAFAFA"/>
<path d="M415.568 333.92C415.568 333.92 415.549 334.546 414.945 335.449C414.364 336.36 413.126 337.404 411.367 338.161C409.622 338.96 407.351 339.327 405.194 340.489C404.119 341.067 403.161 341.935 402.522 343.095C401.861 344.244 401.441 345.586 400.867 346.926C399.728 349.647 397.67 351.757 395.471 353.018C393.261 354.299 390.921 354.723 389.017 354.669C387.098 354.622 385.588 354.179 384.61 353.769C384.116 353.57 383.75 353.378 383.508 353.238C383.266 353.097 383.144 353.016 383.153 353C383.174 352.96 383.691 353.236 384.681 353.583C385.665 353.93 387.155 354.308 389.021 354.308C390.876 354.314 393.12 353.867 395.235 352.611C397.342 351.372 399.304 349.342 400.4 346.723C400.96 345.418 401.387 344.056 402.089 342.844C402.77 341.616 403.838 340.664 404.969 340.076C407.244 338.887 409.519 338.566 411.227 337.828C412.96 337.131 414.176 336.173 414.783 335.334C415.412 334.502 415.509 333.897 415.568 333.92Z" fill="#FAFAFA"/>
<path d="M424.459 343.501C424.512 343.605 422.713 344.056 420.514 345.892C419.435 346.812 418.282 348.089 417.407 349.747C416.962 350.569 416.644 351.503 416.233 352.476C415.826 353.431 415.258 354.472 414.268 355.133C413.288 355.791 412.154 356.004 411.119 356.123C410.073 356.24 409.078 356.274 408.154 356.428C406.296 356.72 404.683 357.302 403.402 357.923C400.833 359.19 399.57 360.507 399.505 360.421C399.485 360.402 399.777 360.059 400.391 359.526C401.003 358.995 401.951 358.285 403.24 357.601C404.527 356.924 406.17 356.29 408.079 355.963C409.034 355.792 410.046 355.748 411.061 355.626C412.07 355.505 413.119 355.292 413.981 354.711C414.847 354.136 415.371 353.206 415.775 352.276C416.179 351.341 416.516 350.376 416.993 349.525C417.924 347.815 419.146 346.522 420.285 345.612C421.436 344.708 422.498 344.166 423.251 343.865C423.63 343.717 423.927 343.613 424.135 343.562C424.343 343.506 424.453 343.483 424.459 343.501Z" fill="#FAFAFA"/>
<path d="M385.11 325.355C385.073 325.262 386.19 325.136 387.351 323.943C387.925 323.36 388.483 322.54 388.918 321.542C389.354 320.545 389.651 319.363 389.966 318.118C390.284 316.87 390.617 315.666 391.129 314.637C391.64 313.612 392.299 312.79 392.97 312.236C393.642 311.68 394.307 311.395 394.778 311.288C395.251 311.179 395.521 311.207 395.523 311.23C395.555 311.326 394.425 311.372 393.208 312.507C392.607 313.061 392.014 313.859 391.553 314.842C391.09 315.825 390.777 317.001 390.46 318.244C390.144 319.489 389.828 320.695 389.346 321.735C388.866 322.772 388.243 323.618 387.6 324.203C386.957 324.79 386.311 325.112 385.848 325.248C385.385 325.386 385.113 325.38 385.11 325.355Z" fill="#FAFAFA"/>
<path d="M382.304 307.755C382.175 307.734 382.494 306.275 383.706 304.962C384.906 303.637 386.33 303.191 386.363 303.318C386.429 303.456 385.193 304.075 384.082 305.307C382.955 306.522 382.447 307.808 382.304 307.755Z" fill="#FAFAFA"/>
<path d="M375.43 297.681C375.486 297.724 374.895 298.601 373.893 299.985C373.378 300.668 372.831 301.515 372.049 302.38C371.651 302.801 371.168 303.22 370.558 303.486C369.945 303.758 369.253 303.811 368.596 303.808C367.934 303.806 367.308 303.766 366.731 303.842C366.156 303.918 365.618 304.111 365.152 304.374C364.208 304.9 363.587 305.705 363.265 306.455C362.622 307.997 362.967 309.103 362.864 309.099C362.836 309.107 362.725 308.857 362.667 308.37C362.612 307.888 362.62 307.155 362.931 306.32C363.233 305.491 363.888 304.569 364.917 303.968C365.425 303.665 366.019 303.438 366.663 303.347C367.306 303.256 367.957 303.296 368.596 303.297C369.235 303.3 369.841 303.251 370.361 303.027C370.885 302.805 371.328 302.443 371.709 302.055C372.461 301.262 373.058 300.417 373.606 299.766C374.681 298.438 375.374 297.639 375.43 297.681Z" fill="#FAFAFA"/>
<g opacity="0.2">
<path d="M388.443 320.63L381.005 350.765L374.5 341.698L388.443 320.63Z" fill="black"/>
</g>
<path d="M420.712 419.83C420.571 419.83 420.457 414.822 420.457 408.645C420.457 402.466 420.571 397.46 420.712 397.46C420.853 397.46 420.967 402.466 420.967 408.645C420.967 414.822 420.852 419.83 420.712 419.83Z" fill="#455A64"/>
<path d="M89.3703 364.292C92.3211 364.422 95.0778 366.048 97.0065 368.286C98.9341 370.524 100.104 373.327 100.843 376.187C102.273 381.72 101.31 388.227 99.6878 393.707C93.7294 391.52 90.0985 385.115 88.4609 381.749C85.8717 376.431 84.4233 365.246 89.3703 364.292Z" fill="#FF8500"/>
<path d="M108.232 400.473C106.369 397.75 106.357 393.984 107.873 391.052C109.389 388.121 112.271 386.023 115.434 385.081C116.896 384.646 118.59 384.473 119.851 385.33C121.03 386.133 121.53 387.691 121.365 389.108C121.2 390.525 120.47 391.816 119.612 392.957C116.672 396.867 113.109 400.111 108.232 400.473Z" fill="#FF8500"/>
<path d="M108.729 418.927C108.7 418.93 108.614 418.521 108.472 417.777C108.319 416.957 108.122 415.897 107.884 414.625C107.435 411.975 106.718 408.207 107.32 404.053C107.899 399.918 109.578 396.391 111.324 394.292C112.184 393.23 113.005 392.48 113.612 392.021C113.905 391.779 114.164 391.63 114.327 391.516C114.496 391.407 114.587 391.356 114.596 391.368C114.66 391.442 113.19 392.331 111.556 394.474C109.901 396.581 108.301 400.046 107.731 404.113C107.139 408.182 107.796 411.916 108.173 414.579C108.375 415.917 108.538 417.001 108.63 417.753C108.725 418.504 108.757 418.923 108.729 418.927Z" fill="#263238"/>
<path d="M91.2244 372.713C91.2382 372.707 91.3185 372.864 91.4616 373.167C91.6174 373.512 91.8183 373.955 92.0663 374.503C92.5847 375.666 93.3128 377.359 94.1948 379.457C95.9598 383.653 98.3167 389.485 100.774 395.984C103.229 402.485 105.32 408.418 106.772 412.733C107.499 414.89 108.072 416.641 108.453 417.855C108.629 418.431 108.771 418.895 108.883 419.257C108.977 419.578 109.02 419.75 109.007 419.755C108.993 419.759 108.923 419.597 108.804 419.283C108.673 418.928 108.507 418.472 108.3 417.906C107.857 416.659 107.244 414.936 106.496 412.828C104.974 408.54 102.841 402.626 100.386 396.129C97.9306 389.635 95.6188 383.791 93.9243 379.567C93.0923 377.491 92.4112 375.794 91.9183 374.564C91.6997 374.003 91.5233 373.551 91.3852 373.198C91.2676 372.886 91.2117 372.718 91.2244 372.713Z" fill="#263238"/>
<path d="M101.74 406.66C98.2668 400.632 91.7214 396.487 84.7869 395.924C83.021 395.781 80.8934 396.06 80.0917 397.639C79.2891 399.222 80.3279 401.111 81.5206 402.425C86.4823 407.893 94.9378 409.857 101.801 407.135" fill="#FF8500"/>
<path d="M87.4376 400.677C87.4395 400.648 87.8325 400.668 88.543 400.727C88.8987 400.754 89.3348 400.79 89.8327 400.888C90.3295 400.985 90.9087 401.043 91.5232 401.221C92.1425 401.379 92.8256 401.536 93.5322 401.797C94.2535 402.017 94.9924 402.332 95.7695 402.669C97.3032 403.382 98.93 404.311 100.475 405.513C102.009 406.73 103.303 408.087 104.352 409.416C104.857 410.097 105.338 410.742 105.713 411.396C106.127 412.025 106.433 412.657 106.721 413.228C107.03 413.788 107.21 414.342 107.411 414.808C107.614 415.273 107.739 415.691 107.839 416.034C108.045 416.718 108.145 417.098 108.118 417.106C108.029 417.136 107.618 415.606 106.459 413.36C106.158 412.805 105.842 412.191 105.422 411.578C105.04 410.941 104.556 410.314 104.052 409.651C103.004 408.358 101.727 407.034 100.221 405.839C98.7027 404.658 97.1121 403.736 95.6108 403.014C94.8503 402.673 94.127 402.35 93.4214 402.119C92.7295 401.848 92.0602 401.677 91.4526 401.502C89.0065 400.865 87.4268 400.767 87.4376 400.677Z" fill="#263238"/>
</svg>
