<svg width="500" height="500" viewBox="0 0 500 500" fill="none" xmlns="http://www.w3.org/2000/svg">
<path d="M466.374 181.059H459.777V174.462H455.096V181.059H448.5V185.74H455.096V192.337H459.777V185.74H466.374V181.059Z" fill="#F29938"/>
<path d="M431.512 285.505H425.683V279.676H421.547V285.505H415.719V289.642H421.547V295.471H425.683V289.642H431.512V285.505Z" fill="#F29938"/>
<path d="M182.524 117.823H176.695V111.993H172.558V117.823H166.73V121.959H172.558V127.788H176.695V121.959H182.524V117.823Z" fill="#F29938"/>
<path d="M455.54 210.775H451.313V206.547H448.313V210.775H444.086V213.775H448.313V218.002H451.313V213.775H455.54V210.775Z" fill="#F29938"/>
<path d="M163.509 143.393H159.282V139.166H156.282V143.393H152.055V146.393H156.282V150.621H159.282V146.393H163.509V143.393Z" fill="#F29938"/>
<path d="M52.6846 194.38H46.8546V188.551H42.7186V194.38H36.8906V198.517H42.7186V204.346H46.8546V198.517H52.6846V194.38Z" fill="#F29938"/>
<path d="M54.8173 376.182H50.5903V371.954H47.5903V376.182H43.3633V379.182H47.5903V383.409H50.5903V379.182H54.8173V376.182Z" fill="#F29938"/>
<path d="M43.3631 295.284C45.5226 295.284 47.2731 293.533 47.2731 291.374C47.2731 289.215 45.5226 287.464 43.3631 287.464C41.2037 287.464 39.4531 289.215 39.4531 291.374C39.4531 293.533 41.2037 295.284 43.3631 295.284Z" fill="#FF8500"/>
<path d="M458.742 247.673C458.742 248.813 457.818 249.737 456.677 249.737C455.537 249.737 454.613 248.813 454.613 247.673C454.613 246.533 455.537 245.608 456.677 245.608C457.818 245.608 458.742 246.532 458.742 247.673Z" fill="#FF8500"/>
<path d="M457.16 377.682C457.16 379.841 455.41 381.592 453.25 381.592C451.091 381.592 449.34 379.842 449.34 377.682C449.34 375.523 451.09 373.772 453.25 373.772C455.41 373.772 457.16 375.522 457.16 377.682Z" fill="#FF8500"/>
<path d="M182.102 83.376C182.102 84.516 181.178 85.441 180.037 85.441C178.897 85.441 177.973 84.517 177.973 83.376C177.973 82.236 178.897 81.312 180.037 81.312C181.178 81.311 182.102 82.236 182.102 83.376Z" fill="#FF8500"/>
<path d="M138.949 85.899C138.949 88.058 137.199 89.809 135.039 89.809C132.879 89.809 131.129 88.058 131.129 85.899C131.129 83.74 132.88 81.989 135.039 81.989C137.198 81.989 138.949 83.74 138.949 85.899Z" fill="#FF8500"/>
<path d="M210.203 99.809C212.362 99.809 214.113 98.0585 214.113 95.899C214.113 93.7396 212.362 91.989 210.203 91.989C208.044 91.989 206.293 93.7396 206.293 95.899C206.293 98.0585 208.044 99.809 210.203 99.809Z" fill="#FF8500"/>
<path d="M37.754 230.695C37.754 231.835 36.83 232.76 35.689 232.76C34.549 232.76 33.625 231.836 33.625 230.695C33.625 229.555 34.549 228.631 35.689 228.631C36.83 228.631 37.754 229.555 37.754 230.695Z" fill="#FF8500"/>
<path d="M76.7188 298.927C76.7188 300.067 75.7948 300.992 74.6538 300.992C73.5138 300.992 72.5898 300.068 72.5898 298.927C72.5898 297.787 73.5138 296.863 74.6538 296.863C75.7938 296.863 76.7188 297.787 76.7188 298.927Z" fill="#FF8500"/>
<path d="M448.606 139.399C448.606 140.539 447.682 141.464 446.541 141.464C445.401 141.464 444.477 140.54 444.477 139.399C444.477 138.259 445.401 137.335 446.541 137.335C447.681 137.335 448.606 138.259 448.606 139.399Z" fill="#FF8500"/>
<path d="M371.68 101.744C371.68 102.884 370.756 103.808 369.615 103.808C368.475 103.808 367.551 102.884 367.551 101.744C367.551 100.604 368.475 99.679 369.615 99.679C370.756 99.68 371.68 100.604 371.68 101.744Z" fill="#FF8500"/>
<path d="M402.914 93.628C405.073 93.628 406.824 91.8774 406.824 89.718C406.824 87.5586 405.073 85.808 402.914 85.808C400.754 85.808 399.004 87.5586 399.004 89.718C399.004 91.8774 400.754 93.628 402.914 93.628Z" fill="#FF8500"/>
<path d="M465.438 357.989C465.438 359.129 464.514 360.054 463.373 360.054C462.233 360.054 461.309 359.13 461.309 357.989C461.309 356.849 462.233 355.924 463.373 355.924C464.514 355.924 465.438 356.849 465.438 357.989Z" fill="#FF8500"/>
<path d="M95.7735 89.809C95.7735 90.949 94.8495 91.873 93.7085 91.873C92.5685 91.873 91.6445 90.949 91.6445 89.809C91.6445 88.669 92.5685 87.744 93.7085 87.744C94.8485 87.744 95.7735 88.669 95.7735 89.809Z" fill="#FF8500"/>
<path d="M246.784 418.688C362.704 418.688 456.677 410.442 456.677 400.269C456.677 390.097 362.704 381.85 246.784 381.85C130.863 381.85 36.8906 390.097 36.8906 400.269C36.8906 410.442 130.863 418.688 246.784 418.688Z" fill="#FFF4E9"/>
<path d="M393.32 391.903C393.32 391.903 362.132 328.591 457.271 300.992C457.271 300.992 463.898 396.934 393.32 391.903Z" fill="#FFC382"/>
<mask id="mask0_3502_3214" style="mask-type:luminance" maskUnits="userSpaceOnUse" x="388" y="300" width="70" height="93">
<path d="M393.32 391.903C393.32 391.903 362.132 328.591 457.271 300.992C457.271 300.992 463.898 396.934 393.32 391.903Z" fill="white"/>
</mask>
<g mask="url(#mask0_3502_3214)">
<path d="M470.03 315.729L469.485 314.817C450.677 326.012 433.558 329.942 428.5 330.923C433.211 325.358 437.857 320.259 442.062 315.844C443.953 315.492 456.915 312.801 470.075 302.995L469.439 302.145C458.361 310.399 447.462 313.528 443.367 314.48C452.503 304.981 459.256 298.962 459.458 298.783L458.751 297.989C458.546 298.17 451.648 304.32 442.35 314.009C443.247 301.951 449.167 290.139 449.229 290.017L448.279 289.538C448.214 289.666 441.779 302.493 441.211 315.202C436.995 319.635 432.339 324.75 427.619 330.332C427.958 314.55 434.715 296.059 434.785 295.868L433.787 295.501C433.713 295.699 426.517 315.381 426.538 331.618C421.987 337.059 417.408 342.917 413.128 349.006C412.295 326.273 419.014 302.825 419.084 302.585L418.061 302.291C417.989 302.536 410.942 327.111 412.121 350.449C408.955 355.034 405.971 359.738 403.316 364.484C398.608 340.046 404.676 317.862 404.739 317.637L403.714 317.351C403.649 317.583 397.298 340.756 402.516 365.942C399.912 370.725 397.656 375.539 395.885 380.307C389.864 363.215 388.694 338.735 388.955 337.322L387.907 337.131C387.626 338.661 388.711 364.2 395.319 381.875C393.703 386.498 392.556 391.068 392.024 395.509L393.08 395.635C393.594 391.347 394.691 386.935 396.233 382.47C397.474 382.728 401.057 383.339 407.221 383.339C407.707 383.339 408.212 383.336 408.732 383.328C416.69 383.204 430.12 381.99 448.896 376.916L448.617 375.892C416.599 384.545 399.795 382.077 396.585 381.454C398.366 376.505 400.694 371.496 403.398 366.52C404.255 366.604 406.486 366.785 409.737 366.785C419.972 366.785 440.087 364.97 457.583 352.52L456.965 351.655C435.021 367.271 408.891 365.923 403.956 365.505C406.673 360.6 409.746 355.735 413.022 350.996C416.305 350.663 445.534 347.314 465.005 332.136L464.35 331.301C446.321 345.353 419.762 349.148 413.827 349.84C418.159 343.661 422.809 337.714 427.428 332.199C429.935 331.777 448.943 328.28 470.03 315.729Z" fill="#F9AB43"/>
</g>
<path opacity="0.1" d="M457.271 300.992C451.643 302.625 446.472 304.386 441.696 306.248C443.755 312.411 444.882 319.072 444.882 326.024C444.882 357.612 421.667 383.219 393.029 383.219C392.117 383.219 391.21 383.192 390.309 383.14C391.688 388.582 393.319 391.903 393.319 391.903C463.898 396.934 457.271 300.992 457.271 300.992Z" fill="#B05C00"/>
<path d="M110.442 385.212C110.442 385.212 55.1825 398.39 50.3555 318.972C50.3555 318.972 126.896 330.828 110.442 385.212Z" fill="#F9AB43"/>
<mask id="mask1_3502_3214" style="mask-type:luminance" maskUnits="userSpaceOnUse" x="50" y="318" width="63" height="69">
<path d="M110.442 385.212C110.442 385.212 55.1825 398.39 50.3555 318.972C50.3555 318.973 126.896 330.828 110.442 385.212Z" fill="white"/>
</mask>
<g mask="url(#mask1_3502_3214)">
<path d="M64.1897 311.598L63.3767 311.863C68.8397 328.583 68.8937 342.689 68.7687 346.825C65.2317 342.146 62.0497 337.602 59.3257 333.524C59.3837 331.981 59.5667 321.35 54.1937 309.3L53.4137 309.647C57.9347 319.79 58.4627 328.882 58.4847 332.258C52.6417 323.415 49.1097 317.057 49.0047 316.866L48.2557 317.279C48.3617 317.472 51.9707 323.967 57.9357 332.971C48.6227 330.126 40.3917 323.391 40.3067 323.321L39.7617 323.98C39.8507 324.054 48.7877 331.373 58.6697 334.076C61.4057 338.166 64.5987 342.721 68.1477 347.41C55.8097 344.34 42.4817 335.763 42.3437 335.674L41.8787 336.39C42.0207 336.483 56.2077 345.616 68.9667 348.485C72.4347 353.016 76.2257 357.644 80.2507 362.077C62.2457 358.69 45.0157 349.262 44.8397 349.165L44.4267 349.914C44.6067 350.014 62.6627 359.9 81.2047 363.122C84.2457 366.417 87.4127 369.589 90.6697 372.512C70.6377 371.858 54.2867 363.163 54.1207 363.074L53.7147 363.826C53.8857 363.918 70.9637 373.01 91.6727 373.397C94.9687 376.286 98.3507 378.908 101.783 381.143C87.2887 382.822 67.8517 379.389 66.7877 378.934L66.4517 379.721C67.6037 380.213 87.8577 383.901 102.914 381.865C106.259 383.952 109.646 385.662 113.04 386.868L113.326 386.063C110.049 384.899 106.777 383.256 103.543 381.255C103.966 380.329 105.081 377.631 106.172 372.804C106.258 372.423 106.345 372.027 106.431 371.619C107.743 365.364 109.168 354.63 108.509 339.023L107.655 339.059C108.78 365.674 103.865 378.396 102.807 380.8C99.2347 378.526 95.7127 375.812 92.2817 372.811C92.4987 372.155 93.0367 370.44 93.6127 367.893C95.4257 359.876 97.5637 343.799 90.8827 327.885L90.0947 328.215C98.4747 348.176 92.7867 368.402 91.5847 372.193C88.2137 369.193 84.9357 365.922 81.7927 362.515C82.1127 359.885 84.6597 336.397 76.1857 318.45L75.4137 318.815C83.2587 335.432 81.5347 356.908 81.0277 361.679C76.9407 357.188 73.0937 352.49 69.5787 347.892C69.6937 345.853 70.3147 330.344 64.1897 311.598Z" fill="#FFC382"/>
</g>
<path opacity="0.1" d="M50.3555 318.973C50.6405 323.671 51.1085 328.034 51.7255 332.106C56.9325 331.588 62.3645 331.889 67.8255 333.124C92.6395 338.736 108.642 361.468 103.569 383.898C103.407 384.612 103.225 385.318 103.025 386.014C107.545 385.901 110.442 385.213 110.442 385.213C126.896 330.828 50.3555 318.973 50.3555 318.973Z" fill="#B05C00"/>
<path d="M404.605 349.989C404.605 354.389 401.005 357.989 396.605 357.989H96.9609C92.5609 357.989 88.9609 354.389 88.9609 349.989V169.426C88.9609 165.026 92.5609 161.426 96.9609 161.426H396.605C401.005 161.426 404.605 165.026 404.605 169.426V349.989Z" fill="#FFDCB7"/>
<path d="M395.697 171.066H97.8711V348.348H395.697V171.066Z" fill="#FFD19E"/>
<path d="M295.783 357.989H197.781V382.533H295.783V357.989Z" fill="#FFBB71"/>
<path d="M342.687 396.624C324.764 382.154 288.546 372.261 246.781 372.261C205.016 372.261 168.798 382.154 150.875 396.624H342.687Z" fill="#FFDCB7"/>
<path d="M150.876 399.124C152.589 399.124 154.302 399.124 156.015 399.124C160.676 399.124 165.338 399.124 169.999 399.124C176.858 399.124 183.717 399.124 190.576 399.124C198.98 399.124 207.384 399.124 215.788 399.124C224.994 399.124 234.201 399.124 243.407 399.124C252.659 399.124 261.911 399.124 271.163 399.124C279.829 399.124 288.496 399.124 297.162 399.124C304.485 399.124 311.807 399.124 319.13 399.124C324.375 399.124 329.62 399.124 334.864 399.124C337.361 399.124 339.867 399.185 342.364 399.124C342.472 399.121 342.58 399.124 342.687 399.124C345.904 399.124 345.91 394.124 342.687 394.124C340.974 394.124 339.261 394.124 337.548 394.124C332.887 394.124 328.225 394.124 323.564 394.124C316.705 394.124 309.846 394.124 302.987 394.124C294.583 394.124 286.179 394.124 277.775 394.124C268.569 394.124 259.362 394.124 250.156 394.124C240.904 394.124 231.652 394.124 222.4 394.124C213.734 394.124 205.067 394.124 196.401 394.124C189.078 394.124 181.756 394.124 174.433 394.124C169.188 394.124 163.943 394.124 158.699 394.124C156.202 394.124 153.696 394.063 151.199 394.124C151.091 394.127 150.983 394.124 150.876 394.124C147.659 394.124 147.653 399.124 150.876 399.124Z" fill="#FFBB71"/>
<path d="M379.429 183.4H114.137V336.783H379.429V183.4Z" fill="white"/>
<path d="M379.429 183.4H114.137V198.18H379.429V183.4Z" fill="#FF8500"/>
<path d="M127.034 191.13C127.034 192.998 125.52 194.512 123.652 194.512C121.784 194.512 120.27 192.998 120.27 191.13C120.27 189.262 121.784 187.748 123.652 187.748C125.519 187.748 127.034 189.262 127.034 191.13Z" fill="#FF8500"/>
<path d="M138.42 191.13C138.42 192.998 136.906 194.512 135.038 194.512C133.17 194.512 131.656 192.998 131.656 191.13C131.656 189.262 133.17 187.748 135.038 187.748C136.906 187.748 138.42 189.262 138.42 191.13Z" fill="#F9AB43"/>
<path d="M149.811 191.13C149.811 192.998 148.297 194.512 146.429 194.512C144.561 194.512 143.047 192.998 143.047 191.13C143.047 189.262 144.561 187.748 146.429 187.748C148.297 187.748 149.811 189.262 149.811 191.13Z" fill="#FFDCB7"/>
<path d="M340.52 263.056C340.52 272.197 332.664 279.676 323.063 279.676H175.465C165.863 279.676 158.008 272.197 158.008 263.056C158.008 253.915 165.864 246.436 175.465 246.436H323.063C332.664 246.436 340.52 253.915 340.52 263.056Z" fill="#FF8500"/>
<path d="M194.518 270.891L188.461 265.255C189.375 263.961 189.847 262.415 189.789 260.804C189.719 258.859 188.896 257.058 187.471 255.732C186.046 254.406 184.191 253.715 182.246 253.785C180.301 253.855 178.5 254.678 177.175 256.103C175.849 257.528 175.157 259.384 175.227 261.328C175.297 263.273 176.12 265.074 177.545 266.4C178.97 267.726 180.825 268.417 182.77 268.347C184.38 268.289 185.888 267.708 187.113 266.703L193.17 272.339L194.518 270.891ZM178.893 264.952C177.855 263.986 177.256 262.674 177.205 261.258C177.154 259.841 177.658 258.49 178.624 257.452C179.589 256.414 180.902 255.815 182.318 255.764C183.735 255.713 185.086 256.217 186.124 257.182C187.162 258.148 187.761 259.46 187.812 260.876C187.863 262.293 187.359 263.644 186.393 264.682C185.427 265.72 184.115 266.319 182.699 266.37C181.282 266.422 179.93 265.918 178.893 264.952Z" fill="#FFDCB7"/>
<path d="M220.783 264.486C221.729 264.486 222.496 263.719 222.496 262.773C222.496 261.827 221.729 261.06 220.783 261.06C219.837 261.06 219.07 261.827 219.07 262.773C219.07 263.719 219.837 264.486 220.783 264.486Z" fill="white"/>
<path d="M240.783 264.486C241.729 264.486 242.496 263.719 242.496 262.773C242.496 261.827 241.729 261.06 240.783 261.06C239.837 261.06 239.07 261.827 239.07 262.773C239.07 263.719 239.837 264.486 240.783 264.486Z" fill="white"/>
<path d="M260.783 264.486C261.729 264.486 262.496 263.719 262.496 262.773C262.496 261.827 261.729 261.06 260.783 261.06C259.837 261.06 259.07 261.827 259.07 262.773C259.07 263.719 259.837 264.486 260.783 264.486Z" fill="white"/>
<path d="M280.783 264.486C281.729 264.486 282.496 263.719 282.496 262.773C282.496 261.827 281.729 261.06 280.783 261.06C279.837 261.06 279.07 261.827 279.07 262.773C279.07 263.719 279.837 264.486 280.783 264.486Z" fill="white"/>
<path d="M438.492 123.526H306.445V268.805H438.492V123.526Z" fill="#FFFBF7"/>
<path d="M438.492 123.526H306.445V139.903H438.492V123.526Z" fill="#FF8500"/>
<path d="M320.734 132.092C320.734 134.162 319.056 135.84 316.986 135.84C314.916 135.84 313.238 134.162 313.238 132.092C313.238 130.022 314.916 128.344 316.986 128.344C319.056 128.344 320.734 130.023 320.734 132.092Z" fill="#FF8500"/>
<path d="M333.355 132.092C333.355 134.162 331.677 135.84 329.607 135.84C327.537 135.84 325.859 134.162 325.859 132.092C325.859 130.022 327.537 128.344 329.607 128.344C331.677 128.344 333.355 130.023 333.355 132.092Z" fill="#F9AB43"/>
<path d="M345.973 132.092C345.973 134.162 344.295 135.84 342.225 135.84C340.155 135.84 338.477 134.162 338.477 132.092C338.477 130.022 340.155 128.344 342.225 128.344C344.295 128.344 345.973 130.023 345.973 132.092Z" fill="#FFDCB7"/>
<path d="M399.719 214.598L394.266 220.052L443.146 268.932L448.6 263.478L399.719 214.598Z" fill="#FF8500"/>
<path d="M401.414 211.485L391.152 221.746L405.456 236.049L415.717 225.788L401.414 211.485Z" fill="#FFDCB7"/>
<g opacity="0.2">
<path d="M396.994 217.324C384.209 230.109 363.405 230.109 350.62 217.324C337.835 204.539 337.835 183.735 350.62 170.95C363.405 158.165 384.209 158.165 396.994 170.95C409.779 183.735 409.779 204.539 396.994 217.324Z" fill="#FFFBF7"/>
</g>
<path d="M400.108 220.437C385.607 234.938 362.01 234.939 347.509 220.437C333.008 205.935 333.008 182.339 347.509 167.838C362.01 153.337 385.607 153.336 400.108 167.838C414.609 182.339 414.609 205.935 400.108 220.437ZM352.962 173.291C341.467 184.786 341.468 203.488 352.962 214.982C364.456 226.476 383.159 226.477 394.653 214.982C406.148 203.487 406.147 184.785 394.653 173.291C383.159 161.797 364.457 161.796 352.962 173.291Z" fill="#FF8500"/>
<path d="M390.116 182.63L385.313 177.827L373.806 189.334L362.299 177.827L357.496 182.63L369.003 194.137L357.496 205.643L362.299 210.447L373.806 198.94L385.313 210.447L390.116 205.643L378.609 194.137L390.116 182.63Z" fill="#F9AB43"/>
<path d="M163.381 291.374H103.648V399.285H195.783V322.414L163.381 291.374Z" fill="#FF8500"/>
<path d="M163.383 291.374L195.785 322.414H163.383V291.374Z" fill="#F4AEA6"/>
<path d="M139.89 332.845C139.89 336.084 138.008 338.71 135.687 338.71C133.366 338.71 131.484 336.084 131.484 332.845C131.484 329.606 133.366 326.98 135.687 326.98C138.008 326.98 139.89 329.606 139.89 332.845Z" fill="white"/>
<path d="M163.629 338.71C165.95 338.71 167.832 336.084 167.832 332.845C167.832 329.606 165.95 326.98 163.629 326.98C161.308 326.98 159.426 329.606 159.426 332.845C159.426 336.084 161.308 338.71 163.629 338.71Z" fill="white"/>
<path d="M137.969 350.451C139.718 348.536 142.15 347.03 144.571 346.157C150.697 343.948 156.619 346.256 161.285 350.451C162.531 351.571 164.382 349.731 163.13 348.606C157.957 343.956 151.247 341.224 144.366 343.473C141.348 344.459 138.284 346.239 136.123 348.606C134.994 349.844 136.834 351.695 137.969 350.451Z" fill="white"/>
<path d="M131.907 109.422H64.7167C60.7087 109.422 57.4297 112.701 57.4297 116.709V163.84C57.4297 167.848 60.7087 171.127 64.7167 171.127H88.3247L98.3117 183.292L108.299 171.127H131.907C135.915 171.127 139.194 167.848 139.194 163.84V116.709C139.194 112.701 135.915 109.422 131.907 109.422Z" fill="#F9AB43"/>
<path d="M98.3125 118.179C86.0435 118.179 76.0625 128.16 76.0625 140.429C76.0625 152.698 86.0435 162.679 98.3125 162.679C110.582 162.679 120.562 152.697 120.562 140.429C120.562 128.16 110.582 118.179 98.3125 118.179ZM98.3125 122.374C102.536 122.374 106.421 123.836 109.5 126.274L84.1585 151.617C81.7205 148.538 80.2585 144.652 80.2585 140.429C80.2575 130.474 88.3575 122.374 98.3125 122.374ZM98.3125 158.483C94.0895 158.483 90.2035 157.022 87.1245 154.583L112.466 129.241C114.905 132.319 116.366 136.206 116.366 140.429C116.367 150.384 108.269 158.483 98.3125 158.483Z" fill="white"/>
<path d="M382.7 298.928L326.973 298.56L326.309 399.232L412.263 399.8L412.737 328.085L382.7 298.928Z" fill="#FFD19E"/>
<path d="M382.699 298.928L412.736 328.085L382.508 327.885L382.699 298.928Z" fill="#FFECD8"/>
<path d="M387.846 336.455L382.538 331.077L369.652 343.793L356.934 330.908L351.556 336.216L364.273 349.101L351.387 361.818L356.695 367.196L369.581 354.48L382.299 367.365L387.677 362.057L374.96 349.172L387.846 336.455Z" fill="#FFF3E6"/>
<path d="M101.725 221.275L68.3748 204.559L38.1758 264.808L89.6178 290.592L111.129 247.673L101.725 221.275Z" fill="#FFD19E"/>
<path d="M101.725 221.275L111.129 247.673L93.0391 238.605L101.725 221.275Z" fill="#FFECD8"/>
<path d="M93.7066 245.331L92.1116 240.531L80.6106 244.352L76.7886 232.85L71.9886 234.445L75.8096 245.946L64.3086 249.767L65.9036 254.568L77.4046 250.747L81.2266 262.248L86.0276 260.653L82.2056 249.152L93.7066 245.331Z" fill="#FFF3E6"/>
<path d="M226.477 109.437L199.785 118.123L215.476 166.344L256.648 152.947L245.47 118.596L226.477 109.437Z" fill="#FFD19E"/>
<path d="M226.477 109.437L245.47 118.596L230.991 123.307L226.477 109.437Z" fill="#FFECD8"/>
<path d="M234.905 126.554L231.513 124.828L227.377 132.955L219.249 128.818L217.523 132.21L225.65 136.347L221.513 144.474L224.905 146.2L229.042 138.073L237.169 142.21L238.896 138.817L230.769 134.681L234.905 126.554Z" fill="#FFF3E6"/>
<path d="M308.88 104.81L306.542 104.802C306.054 102.736 305.248 100.798 304.174 99.034L305.835 97.385C307.13 96.099 307.138 93.986 305.851 92.691L303.924 90.75C302.637 89.455 300.525 89.447 299.23 90.734L297.569 92.383C295.812 91.298 293.879 90.477 291.817 89.975L291.826 87.637C291.832 85.811 290.344 84.312 288.518 84.306L285.783 84.297C283.957 84.291 282.457 85.779 282.451 87.605L282.443 89.943C280.377 90.432 278.439 91.238 276.675 92.312L275.027 90.651C273.74 89.355 271.628 89.348 270.333 90.635L268.391 92.562C267.096 93.849 267.089 95.961 268.376 97.256L270.024 98.917C268.938 100.674 268.118 102.606 267.615 104.669L265.278 104.661C263.452 104.655 261.953 106.143 261.947 107.969L261.938 110.704C261.932 112.53 263.42 114.029 265.246 114.035L267.584 114.043C268.072 116.109 268.879 118.047 269.953 119.811L268.291 121.46C266.996 122.746 266.989 124.859 268.276 126.154L270.203 128.095C271.489 129.39 273.602 129.398 274.898 128.111L276.558 126.462C278.315 127.548 280.246 128.368 282.309 128.871L282.302 131.209C282.296 133.035 283.784 134.534 285.61 134.54L288.344 134.549C290.17 134.555 291.668 133.067 291.675 131.241L291.684 128.903C293.75 128.415 295.687 127.608 297.451 126.534L299.101 128.195C300.387 129.49 302.5 129.498 303.795 128.211L305.735 126.284C307.03 124.998 307.039 122.885 305.752 121.59L304.102 119.93C305.188 118.173 306.008 116.241 306.511 114.178L308.848 114.186C310.674 114.192 312.173 112.704 312.179 110.878L312.188 108.143C312.193 106.316 310.705 104.817 308.88 104.81ZM287.029 118.684C281.914 118.666 277.783 114.505 277.8 109.39C277.818 104.275 281.978 100.143 287.093 100.16C292.208 100.178 296.341 104.338 296.324 109.454C296.306 114.569 292.144 118.701 287.029 118.684Z" fill="#FF8500"/>
<path d="M287.108 96.208C279.81 96.183 273.873 102.079 273.848 109.376C273.823 116.674 279.718 122.611 287.016 122.636C294.314 122.661 300.25 116.765 300.276 109.467C300.301 102.17 294.406 96.233 287.108 96.208ZM287.034 117.628C282.502 117.612 278.841 113.926 278.856 109.394C278.872 104.862 282.558 101.201 287.09 101.216C291.622 101.232 295.283 104.918 295.268 109.451C295.252 113.982 291.566 117.644 287.034 117.628Z" fill="#F9AB43"/>
<path d="M125.98 362.646H128.378L130.765 366.375V362.646H133.369V370.667H130.971L128.584 366.926V370.667H125.98V362.646ZM138.302 370.839C137.483 370.839 136.741 370.663 136.076 370.311C135.418 369.959 134.898 369.469 134.515 368.842C134.133 368.207 133.942 367.481 133.942 366.662C133.942 365.844 134.133 365.117 134.515 364.482C134.898 363.847 135.418 363.354 136.076 363.002C136.741 362.65 137.483 362.474 138.302 362.474C139.113 362.474 139.847 362.65 140.505 363.002C141.17 363.354 141.694 363.847 142.077 364.482C142.459 365.117 142.651 365.844 142.651 366.662C142.651 367.481 142.459 368.207 142.077 368.842C141.694 369.469 141.17 369.959 140.505 370.311C139.847 370.663 139.113 370.839 138.302 370.839ZM138.302 368.28C138.761 368.28 139.139 368.135 139.438 367.844C139.736 367.553 139.885 367.159 139.885 366.662C139.885 366.165 139.736 365.771 139.438 365.48C139.139 365.189 138.761 365.044 138.302 365.044C137.835 365.044 137.453 365.189 137.154 365.48C136.856 365.771 136.707 366.165 136.707 366.662C136.707 367.159 136.856 367.553 137.154 367.844C137.46 368.135 137.843 368.28 138.302 368.28ZM146.665 362.646H149.74C150.628 362.646 151.404 362.807 152.07 363.128C152.743 363.449 153.263 363.908 153.63 364.505C153.997 365.101 154.181 365.805 154.181 366.616C154.181 367.947 153.783 368.957 152.988 369.645C152.2 370.326 151.117 370.667 149.74 370.667H146.665V362.646ZM149.924 368.142C150.918 368.142 151.416 367.634 151.416 366.616C151.416 366.149 151.286 365.794 151.026 365.549C150.765 365.297 150.398 365.17 149.924 365.17H149.385V368.142H149.924ZM156.988 362.646H159.559L162.771 370.667H159.983L159.467 369.267H157.08L156.564 370.667H153.775L156.988 362.646ZM158.87 367.27L158.273 365.423L157.677 367.27H158.87ZM163.568 364.929H161.514V362.646H168.342V364.929H166.288V370.667H163.568V364.929ZM170.289 362.646H172.86L176.072 370.667H173.284L172.768 369.267H170.381L169.865 370.667H167.076L170.289 362.646ZM172.171 367.27L171.574 365.423L170.978 367.27H172.171Z" fill="white"/>
</svg>
